<svg width="1008" height="553" viewBox="0 0 1008 553" fill="none" xmlns="http://www.w3.org/2000/svg">
<g filter="url(#filter0_d_256_850)">
<rect x="6" y="4" width="996" height="541" rx="33" fill="#F3F3FF"/>
</g>
<path d="M383.584 473.415L391.626 448.43H397.442L386.482 479H382.556L383.584 473.415ZM376.152 448.43L384.13 473.415L385.222 479H381.275L370.357 448.43H376.152ZM406.422 456.282V479H401.341V456.282H406.422ZM401.005 450.319C401.005 449.549 401.257 448.913 401.761 448.409C402.279 447.891 402.993 447.632 403.903 447.632C404.799 447.632 405.506 447.891 406.023 448.409C406.541 448.913 406.8 449.549 406.8 450.319C406.8 451.075 406.541 451.705 406.023 452.209C405.506 452.713 404.799 452.965 403.903 452.965C402.993 452.965 402.279 452.713 401.761 452.209C401.257 451.705 401.005 451.075 401.005 450.319ZM422.625 479.42C420.946 479.42 419.427 479.147 418.069 478.601C416.726 478.041 415.578 477.264 414.626 476.271C413.688 475.277 412.967 474.108 412.463 472.764C411.959 471.42 411.707 469.972 411.707 468.418V467.578C411.707 465.8 411.966 464.191 412.484 462.749C413.002 461.307 413.723 460.076 414.647 459.054C415.571 458.018 416.663 457.227 417.922 456.681C419.182 456.135 420.547 455.862 422.017 455.862C423.64 455.862 425.061 456.135 426.279 456.681C427.497 457.227 428.504 457.997 429.302 458.991C430.114 459.971 430.716 461.139 431.108 462.497C431.514 463.855 431.717 465.353 431.717 466.99V469.153H414.164V465.521H426.72V465.122C426.692 464.212 426.51 463.358 426.174 462.56C425.852 461.762 425.355 461.118 424.683 460.628C424.011 460.139 423.115 459.894 421.996 459.894C421.156 459.894 420.407 460.076 419.749 460.439C419.105 460.789 418.566 461.3 418.132 461.972C417.698 462.644 417.362 463.456 417.124 464.408C416.901 465.346 416.789 466.402 416.789 467.578V468.418C416.789 469.412 416.922 470.336 417.187 471.189C417.467 472.029 417.873 472.764 418.405 473.394C418.937 474.024 419.581 474.521 420.337 474.885C421.093 475.235 421.954 475.41 422.919 475.41C424.137 475.41 425.222 475.165 426.174 474.675C427.126 474.185 427.951 473.492 428.651 472.596L431.318 475.179C430.828 475.893 430.191 476.578 429.407 477.236C428.623 477.88 427.665 478.405 426.531 478.811C425.411 479.217 424.109 479.42 422.625 479.42ZM442.482 473.961L447.731 456.282H450.964L450.082 461.573L444.791 479H441.894L442.482 473.961ZM439.395 456.282L443.49 474.045L443.826 479H440.592L434.44 456.282H439.395ZM455.877 473.835L459.846 456.282H464.78L458.649 479H455.415L455.877 473.835ZM451.51 456.282L456.696 473.751L457.347 479H454.45L449.096 461.552L448.214 456.282H451.51ZM482.867 448.43H487.57L496.409 472.008L505.227 448.43H509.931L498.257 479H494.519L482.867 448.43ZM480.725 448.43H485.197L485.974 468.838V479H480.725V448.43ZM507.6 448.43H512.093V479H506.823V468.838L507.6 448.43ZM517.525 467.893V467.41C517.525 465.772 517.763 464.254 518.239 462.854C518.715 461.44 519.401 460.215 520.297 459.18C521.207 458.13 522.312 457.318 523.614 456.744C524.93 456.156 526.414 455.862 528.065 455.862C529.731 455.862 531.215 456.156 532.516 456.744C533.832 457.318 534.945 458.13 535.855 459.18C536.765 460.215 537.458 461.44 537.933 462.854C538.409 464.254 538.647 465.772 538.647 467.41V467.893C538.647 469.531 538.409 471.049 537.933 472.449C537.458 473.849 536.765 475.074 535.855 476.124C534.945 477.159 533.839 477.971 532.537 478.559C531.236 479.133 529.759 479.42 528.107 479.42C526.442 479.42 524.951 479.133 523.635 478.559C522.333 477.971 521.228 477.159 520.318 476.124C519.408 475.074 518.715 473.849 518.239 472.449C517.763 471.049 517.525 469.531 517.525 467.893ZM522.585 467.41V467.893C522.585 468.915 522.69 469.881 522.9 470.791C523.11 471.7 523.439 472.498 523.887 473.184C524.335 473.87 524.909 474.409 525.609 474.801C526.309 475.193 527.141 475.389 528.107 475.389C529.045 475.389 529.857 475.193 530.543 474.801C531.243 474.409 531.817 473.87 532.265 473.184C532.712 472.498 533.041 471.7 533.251 470.791C533.475 469.881 533.587 468.915 533.587 467.893V467.41C533.587 466.402 533.475 465.451 533.251 464.555C533.041 463.645 532.705 462.84 532.244 462.14C531.796 461.44 531.222 460.894 530.522 460.502C529.836 460.097 529.017 459.894 528.065 459.894C527.113 459.894 526.288 460.097 525.588 460.502C524.902 460.894 524.335 461.44 523.887 462.14C523.439 462.84 523.11 463.645 522.9 464.555C522.69 465.451 522.585 466.402 522.585 467.41ZM548.615 460.607V479H543.555V456.282H548.384L548.615 460.607ZM555.564 456.135L555.522 460.838C555.214 460.782 554.878 460.74 554.515 460.712C554.165 460.684 553.815 460.67 553.465 460.67C552.597 460.67 551.834 460.796 551.176 461.048C550.518 461.286 549.965 461.636 549.517 462.098C549.084 462.546 548.748 463.092 548.51 463.736C548.272 464.38 548.132 465.101 548.09 465.898L546.935 465.982C546.935 464.555 547.075 463.232 547.355 462.014C547.635 460.796 548.055 459.726 548.615 458.802C549.189 457.878 549.902 457.157 550.756 456.639C551.624 456.121 552.625 455.862 553.759 455.862C554.067 455.862 554.396 455.89 554.745 455.946C555.109 456.002 555.382 456.065 555.564 456.135ZM568.975 479.42C567.295 479.42 565.777 479.147 564.419 478.601C563.075 478.041 561.927 477.264 560.975 476.271C560.038 475.277 559.317 474.108 558.813 472.764C558.309 471.42 558.057 469.972 558.057 468.418V467.578C558.057 465.8 558.316 464.191 558.834 462.749C559.352 461.307 560.073 460.076 560.996 459.054C561.92 458.018 563.012 457.227 564.272 456.681C565.532 456.135 566.896 455.862 568.366 455.862C569.99 455.862 571.41 456.135 572.628 456.681C573.846 457.227 574.854 457.997 575.652 458.991C576.464 459.971 577.065 461.139 577.457 462.497C577.863 463.855 578.066 465.353 578.066 466.99V469.153H560.514V465.521H573.069V465.122C573.041 464.212 572.859 463.358 572.523 462.56C572.201 461.762 571.704 461.118 571.033 460.628C570.361 460.139 569.465 459.894 568.345 459.894C567.505 459.894 566.756 460.076 566.098 460.439C565.455 460.789 564.916 461.3 564.482 461.972C564.048 462.644 563.712 463.456 563.474 464.408C563.25 465.346 563.138 466.402 563.138 467.578V468.418C563.138 469.412 563.271 470.336 563.537 471.189C563.817 472.029 564.223 472.764 564.755 473.394C565.287 474.024 565.931 474.521 566.686 474.885C567.442 475.235 568.303 475.41 569.269 475.41C570.487 475.41 571.571 475.165 572.523 474.675C573.475 474.185 574.301 473.492 575.001 472.596L577.667 475.179C577.177 475.893 576.541 476.578 575.757 477.236C574.973 477.88 574.014 478.405 572.88 478.811C571.76 479.217 570.459 479.42 568.975 479.42Z" fill="#201065"/>
<path d="M604 475L615 463.5L604 452" stroke="black" stroke-width="5" stroke-linecap="round" stroke-linejoin="round"/>
<path d="M86.4478 366.388H86.7837V369.684H86.4478C84.3901 369.684 82.6685 370.02 81.2827 370.692C79.897 371.35 78.7982 372.239 77.9863 373.358C77.1745 374.464 76.5866 375.71 76.2227 377.096C75.8727 378.481 75.6978 379.888 75.6978 381.316V385.809C75.6978 387.167 75.8587 388.371 76.1807 389.42C76.5026 390.456 76.9435 391.331 77.5034 392.045C78.0633 392.759 78.6932 393.298 79.3931 393.662C80.1069 394.026 80.8488 394.208 81.6187 394.208C82.5145 394.208 83.3123 394.04 84.0122 393.704C84.7121 393.354 85.3 392.871 85.7759 392.255C86.2658 391.625 86.6367 390.883 86.8887 390.029C87.1406 389.175 87.2666 388.238 87.2666 387.216C87.2666 386.306 87.1546 385.431 86.9307 384.591C86.7067 383.737 86.3638 382.982 85.9019 382.324C85.4399 381.652 84.859 381.127 84.1592 380.749C83.4733 380.357 82.6545 380.161 81.7026 380.161C80.6248 380.161 79.617 380.427 78.6792 380.959C77.7554 381.477 76.9925 382.163 76.3906 383.017C75.8027 383.856 75.4668 384.773 75.3828 385.767L73.3252 385.746C73.5212 384.178 73.8851 382.842 74.417 381.736C74.9629 380.616 75.6348 379.706 76.4326 379.006C77.2445 378.292 78.1473 377.775 79.1411 377.453C80.1489 377.117 81.2127 376.949 82.3325 376.949C83.8582 376.949 85.174 377.236 86.2798 377.81C87.3856 378.383 88.2954 379.153 89.0093 380.119C89.7231 381.071 90.248 382.149 90.584 383.353C90.9339 384.542 91.1089 385.767 91.1089 387.027C91.1089 388.469 90.9059 389.819 90.5 391.079C90.0941 392.339 89.4852 393.445 88.6733 394.396C87.8755 395.348 86.8887 396.09 85.7129 396.622C84.5371 397.154 83.1724 397.42 81.6187 397.42C79.967 397.42 78.5252 397.084 77.2935 396.412C76.0617 395.726 75.0399 394.816 74.228 393.683C73.4162 392.549 72.8073 391.289 72.4014 389.903C71.9954 388.518 71.7925 387.111 71.7925 385.683V383.856C71.7925 381.701 72.0094 379.587 72.4434 377.516C72.8773 375.444 73.6261 373.568 74.6899 371.889C75.7677 370.209 77.2585 368.872 79.1621 367.878C81.0658 366.885 83.4943 366.388 86.4478 366.388ZM116.818 386.712V389.903H94.7303V387.615L108.42 366.43H111.59L108.189 372.561L99.1395 386.712H116.818ZM112.556 366.43V397H108.672V366.43H112.556ZM121.258 394.942C121.258 394.285 121.461 393.732 121.867 393.284C122.287 392.822 122.889 392.591 123.673 392.591C124.457 392.591 125.052 392.822 125.458 393.284C125.878 393.732 126.088 394.285 126.088 394.942C126.088 395.586 125.878 396.132 125.458 396.58C125.052 397.028 124.457 397.252 123.673 397.252C122.889 397.252 122.287 397.028 121.867 396.58C121.461 396.132 121.258 395.586 121.258 394.942ZM152.574 393.809V397H132.564V394.208L142.58 383.059C143.811 381.687 144.763 380.525 145.435 379.573C146.121 378.607 146.597 377.747 146.863 376.991C147.143 376.221 147.283 375.437 147.283 374.639C147.283 373.631 147.073 372.722 146.653 371.91C146.247 371.084 145.645 370.426 144.847 369.936C144.049 369.446 143.083 369.201 141.95 369.201C140.592 369.201 139.458 369.467 138.548 369.999C137.652 370.517 136.981 371.245 136.533 372.183C136.085 373.12 135.861 374.198 135.861 375.416H131.977C131.977 373.694 132.354 372.12 133.11 370.692C133.866 369.264 134.986 368.13 136.47 367.291C137.953 366.437 139.78 366.01 141.95 366.01C143.881 366.01 145.533 366.353 146.905 367.039C148.276 367.71 149.326 368.662 150.054 369.894C150.796 371.112 151.167 372.54 151.167 374.177C151.167 375.073 151.013 375.983 150.705 376.907C150.411 377.817 149.998 378.726 149.466 379.636C148.948 380.546 148.339 381.442 147.64 382.324C146.954 383.206 146.219 384.073 145.435 384.927L137.247 393.809H152.574ZM162.074 382.45L158.967 381.652L160.499 366.43H176.183V370.02H163.796L162.872 378.334C163.432 378.013 164.139 377.712 164.992 377.432C165.86 377.152 166.854 377.012 167.974 377.012C169.388 377.012 170.654 377.257 171.774 377.747C172.894 378.222 173.846 378.908 174.63 379.804C175.428 380.7 176.036 381.778 176.456 383.038C176.876 384.297 177.086 385.704 177.086 387.258C177.086 388.728 176.883 390.078 176.477 391.31C176.085 392.542 175.491 393.62 174.693 394.543C173.895 395.453 172.887 396.16 171.669 396.664C170.465 397.168 169.045 397.42 167.407 397.42C166.175 397.42 165.006 397.252 163.901 396.916C162.809 396.566 161.829 396.041 160.961 395.341C160.107 394.627 159.408 393.746 158.862 392.696C158.33 391.632 157.994 390.386 157.854 388.958H161.549C161.717 390.106 162.053 391.072 162.557 391.856C163.061 392.64 163.719 393.235 164.531 393.641C165.356 394.033 166.315 394.229 167.407 394.229C168.331 394.229 169.15 394.068 169.864 393.746C170.577 393.424 171.179 392.962 171.669 392.36C172.159 391.758 172.53 391.03 172.782 390.176C173.048 389.322 173.181 388.364 173.181 387.3C173.181 386.334 173.048 385.438 172.782 384.612C172.516 383.786 172.117 383.066 171.585 382.45C171.067 381.834 170.43 381.358 169.675 381.022C168.919 380.672 168.051 380.497 167.071 380.497C165.769 380.497 164.783 380.672 164.111 381.022C163.453 381.372 162.774 381.848 162.074 382.45ZM181.442 373.925V372.309C181.442 371.147 181.694 370.09 182.198 369.138C182.702 368.186 183.423 367.424 184.361 366.85C185.299 366.276 186.412 365.989 187.699 365.989C189.015 365.989 190.135 366.276 191.059 366.85C191.997 367.424 192.717 368.186 193.221 369.138C193.725 370.09 193.977 371.147 193.977 372.309V373.925C193.977 375.059 193.725 376.102 193.221 377.054C192.731 378.006 192.018 378.768 191.08 379.342C190.156 379.916 189.043 380.203 187.741 380.203C186.44 380.203 185.313 379.916 184.361 379.342C183.423 378.768 182.702 378.006 182.198 377.054C181.694 376.102 181.442 375.059 181.442 373.925ZM184.361 372.309V373.925C184.361 374.569 184.48 375.178 184.718 375.752C184.97 376.326 185.348 376.795 185.852 377.159C186.356 377.509 186.985 377.684 187.741 377.684C188.497 377.684 189.12 377.509 189.61 377.159C190.1 376.795 190.464 376.326 190.702 375.752C190.94 375.178 191.059 374.569 191.059 373.925V372.309C191.059 371.651 190.933 371.035 190.681 370.461C190.443 369.873 190.072 369.404 189.568 369.054C189.078 368.69 188.455 368.508 187.699 368.508C186.957 368.508 186.335 368.69 185.831 369.054C185.341 369.404 184.97 369.873 184.718 370.461C184.48 371.035 184.361 371.651 184.361 372.309ZM196.329 391.142V389.504C196.329 388.357 196.581 387.307 197.085 386.355C197.588 385.403 198.309 384.64 199.247 384.066C200.185 383.493 201.298 383.206 202.586 383.206C203.901 383.206 205.021 383.493 205.945 384.066C206.883 384.64 207.604 385.403 208.108 386.355C208.611 387.307 208.863 388.357 208.863 389.504V391.142C208.863 392.29 208.611 393.34 208.108 394.292C207.618 395.243 206.904 396.006 205.966 396.58C205.042 397.154 203.929 397.441 202.628 397.441C201.326 397.441 200.206 397.154 199.268 396.58C198.33 396.006 197.602 395.243 197.085 394.292C196.581 393.34 196.329 392.29 196.329 391.142ZM199.247 389.504V391.142C199.247 391.786 199.366 392.402 199.604 392.99C199.856 393.564 200.234 394.033 200.738 394.396C201.242 394.746 201.872 394.921 202.628 394.921C203.383 394.921 204.006 394.746 204.496 394.396C205 394.033 205.371 393.564 205.609 392.99C205.847 392.416 205.966 391.8 205.966 391.142V389.504C205.966 388.847 205.84 388.231 205.588 387.657C205.35 387.083 204.979 386.621 204.475 386.271C203.985 385.907 203.355 385.725 202.586 385.725C201.844 385.725 201.221 385.907 200.717 386.271C200.227 386.621 199.856 387.083 199.604 387.657C199.366 388.231 199.247 388.847 199.247 389.504ZM203.551 370.776L188.623 394.669L186.44 393.284L201.368 369.39L203.551 370.776Z" fill="black"/>
<path d="M666.601 366.43V397H662.548V366.43H666.601ZM685.056 366.43L672.354 380.686L665.215 388.098L664.543 383.772L669.918 377.852L680.185 366.43H685.056ZM681.151 397L669.834 382.093L672.249 378.88L685.98 397H681.151ZM702.834 390.974C702.834 390.414 702.708 389.896 702.456 389.42C702.218 388.931 701.721 388.49 700.965 388.098C700.223 387.692 699.104 387.342 697.606 387.048C696.346 386.782 695.205 386.467 694.184 386.103C693.176 385.739 692.315 385.298 691.601 384.78C690.901 384.262 690.362 383.653 689.984 382.954C689.606 382.254 689.417 381.435 689.417 380.497C689.417 379.601 689.613 378.754 690.005 377.957C690.411 377.159 690.978 376.452 691.706 375.836C692.448 375.22 693.337 374.737 694.373 374.387C695.408 374.037 696.563 373.862 697.837 373.862C699.657 373.862 701.21 374.184 702.498 374.828C703.786 375.472 704.773 376.333 705.458 377.411C706.144 378.474 706.487 379.657 706.487 380.959H702.603C702.603 380.329 702.414 379.72 702.036 379.132C701.672 378.53 701.133 378.034 700.419 377.642C699.72 377.25 698.859 377.054 697.837 377.054C696.759 377.054 695.884 377.222 695.212 377.558C694.555 377.88 694.072 378.292 693.764 378.796C693.47 379.3 693.323 379.832 693.323 380.392C693.323 380.812 693.393 381.19 693.533 381.526C693.687 381.848 693.953 382.149 694.331 382.429C694.708 382.695 695.24 382.947 695.926 383.185C696.612 383.423 697.487 383.66 698.551 383.898C700.412 384.318 701.945 384.822 703.149 385.41C704.353 385.998 705.249 386.719 705.836 387.573C706.424 388.427 706.718 389.462 706.718 390.68C706.718 391.674 706.508 392.584 706.088 393.41C705.682 394.236 705.088 394.949 704.304 395.551C703.534 396.139 702.61 396.601 701.532 396.937C700.468 397.259 699.272 397.42 697.942 397.42C695.94 397.42 694.247 397.063 692.861 396.349C691.475 395.635 690.425 394.711 689.711 393.578C688.998 392.444 688.641 391.247 688.641 389.987H692.546C692.602 391.051 692.91 391.898 693.47 392.528C694.03 393.144 694.715 393.585 695.527 393.851C696.339 394.103 697.144 394.229 697.942 394.229C699.006 394.229 699.895 394.089 700.608 393.809C701.336 393.529 701.889 393.144 702.267 392.654C702.645 392.164 702.834 391.604 702.834 390.974ZM716.35 364.75V397H712.465V364.75H716.35ZM715.426 384.78L713.809 384.717C713.823 383.164 714.054 381.729 714.502 380.413C714.95 379.083 715.58 377.929 716.392 376.949C717.203 375.969 718.169 375.213 719.289 374.681C720.423 374.135 721.676 373.862 723.047 373.862C724.167 373.862 725.175 374.016 726.071 374.324C726.967 374.618 727.729 375.094 728.359 375.752C729.003 376.41 729.493 377.264 729.829 378.313C730.165 379.349 730.333 380.616 730.333 382.114V397H726.428V382.072C726.428 380.882 726.253 379.93 725.903 379.216C725.553 378.488 725.042 377.964 724.37 377.642C723.698 377.306 722.872 377.138 721.893 377.138C720.927 377.138 720.045 377.341 719.247 377.747C718.463 378.153 717.784 378.712 717.21 379.426C716.651 380.14 716.21 380.959 715.888 381.883C715.58 382.793 715.426 383.758 715.426 384.78ZM760.451 366.262V397H756.566V371.112L748.735 373.967V370.461L759.842 366.262H760.451ZM776.381 393.746H776.78C779.019 393.746 780.839 393.431 782.239 392.801C783.638 392.171 784.716 391.324 785.472 390.26C786.228 389.196 786.746 388 787.026 386.67C787.306 385.326 787.446 383.947 787.446 382.534V377.852C787.446 376.466 787.285 375.234 786.963 374.156C786.655 373.078 786.221 372.176 785.661 371.448C785.115 370.72 784.492 370.167 783.792 369.789C783.093 369.411 782.351 369.222 781.567 369.222C780.671 369.222 779.866 369.404 779.152 369.768C778.452 370.118 777.857 370.615 777.368 371.259C776.892 371.903 776.528 372.659 776.276 373.526C776.024 374.394 775.898 375.339 775.898 376.361C775.898 377.271 776.01 378.153 776.234 379.006C776.458 379.86 776.801 380.63 777.263 381.316C777.725 382.002 778.298 382.548 778.984 382.954C779.684 383.346 780.503 383.542 781.441 383.542C782.309 383.542 783.121 383.374 783.876 383.038C784.646 382.688 785.325 382.219 785.913 381.631C786.515 381.029 786.991 380.35 787.341 379.594C787.705 378.838 787.915 378.048 787.971 377.222H789.818C789.818 378.383 789.587 379.531 789.125 380.665C788.677 381.785 788.048 382.807 787.236 383.73C786.424 384.654 785.472 385.396 784.38 385.956C783.288 386.502 782.099 386.775 780.811 386.775C779.299 386.775 777.99 386.481 776.885 385.893C775.779 385.305 774.869 384.521 774.155 383.542C773.455 382.562 772.93 381.47 772.58 380.266C772.245 379.048 772.077 377.817 772.077 376.571C772.077 375.115 772.28 373.75 772.685 372.477C773.091 371.203 773.693 370.083 774.491 369.117C775.289 368.137 776.276 367.375 777.452 366.829C778.641 366.283 780.013 366.01 781.567 366.01C783.316 366.01 784.807 366.36 786.039 367.06C787.271 367.759 788.272 368.697 789.041 369.873C789.825 371.049 790.399 372.372 790.763 373.841C791.127 375.311 791.309 376.823 791.309 378.376V379.783C791.309 381.365 791.204 382.975 790.994 384.612C790.798 386.236 790.413 387.79 789.839 389.273C789.279 390.757 788.461 392.087 787.383 393.263C786.305 394.424 784.898 395.348 783.162 396.034C781.441 396.706 779.313 397.042 776.78 397.042H776.381V393.746ZM801.297 392.381V395.509C801.297 396.783 800.975 398.127 800.331 399.541C799.688 400.968 798.785 402.158 797.623 403.11L795.418 401.577C795.866 400.961 796.244 400.331 796.552 399.688C796.86 399.058 797.091 398.4 797.245 397.714C797.413 397.042 797.497 396.328 797.497 395.572V392.381H801.297ZM826.508 393.809V397H806.498V394.208L816.514 383.059C817.745 381.687 818.697 380.525 819.369 379.573C820.055 378.607 820.531 377.747 820.797 376.991C821.077 376.221 821.217 375.437 821.217 374.639C821.217 373.631 821.007 372.722 820.587 371.91C820.181 371.084 819.579 370.426 818.781 369.936C817.983 369.446 817.017 369.201 815.884 369.201C814.526 369.201 813.392 369.467 812.482 369.999C811.586 370.517 810.915 371.245 810.467 372.183C810.019 373.12 809.795 374.198 809.795 375.416H805.911C805.911 373.694 806.288 372.12 807.044 370.692C807.8 369.264 808.92 368.13 810.404 367.291C811.887 366.437 813.714 366.01 815.884 366.01C817.815 366.01 819.467 366.353 820.839 367.039C822.21 367.71 823.26 368.662 823.988 369.894C824.73 371.112 825.101 372.54 825.101 374.177C825.101 375.073 824.947 375.983 824.639 376.907C824.345 377.817 823.932 378.726 823.4 379.636C822.882 380.546 822.273 381.442 821.574 382.324C820.888 383.206 820.153 384.073 819.369 384.927L811.181 393.809H826.508ZM851.067 366.43V368.613L838.407 397H834.312L846.952 369.621H830.407V366.43H851.067ZM876.803 386.712V389.903H854.715V387.615L868.404 366.43H871.575L868.173 372.561L859.124 386.712H876.803ZM872.54 366.43V397H868.656V366.43H872.54ZM881.458 394.942C881.458 394.285 881.661 393.732 882.067 393.284C882.487 392.822 883.089 392.591 883.872 392.591C884.656 392.591 885.251 392.822 885.657 393.284C886.077 393.732 886.287 394.285 886.287 394.942C886.287 395.586 886.077 396.132 885.657 396.58C885.251 397.028 884.656 397.252 883.872 397.252C883.089 397.252 882.487 397.028 882.067 396.58C881.661 396.132 881.458 395.586 881.458 394.942ZM912.148 379.279V383.94C912.148 386.446 911.924 388.56 911.476 390.281C911.028 392.003 910.385 393.389 909.545 394.438C908.705 395.488 907.69 396.251 906.5 396.727C905.324 397.189 903.995 397.42 902.511 397.42C901.335 397.42 900.25 397.273 899.257 396.979C898.263 396.685 897.367 396.216 896.569 395.572C895.785 394.914 895.113 394.061 894.553 393.011C893.994 391.961 893.567 390.687 893.273 389.189C892.979 387.692 892.832 385.942 892.832 383.94V379.279C892.832 376.774 893.056 374.674 893.504 372.98C893.966 371.287 894.616 369.929 895.456 368.907C896.296 367.871 897.304 367.13 898.48 366.682C899.67 366.234 900.999 366.01 902.469 366.01C903.659 366.01 904.751 366.157 905.744 366.451C906.752 366.731 907.648 367.186 908.432 367.815C909.216 368.431 909.881 369.257 910.427 370.293C910.986 371.315 911.413 372.568 911.707 374.051C912.001 375.535 912.148 377.278 912.148 379.279ZM908.243 384.57V378.628C908.243 377.257 908.159 376.053 907.991 375.017C907.837 373.967 907.606 373.071 907.298 372.33C906.99 371.588 906.598 370.986 906.122 370.524C905.66 370.062 905.122 369.726 904.506 369.516C903.904 369.292 903.225 369.18 902.469 369.18C901.545 369.18 900.726 369.355 900.012 369.705C899.299 370.041 898.697 370.58 898.207 371.322C897.731 372.064 897.367 373.036 897.115 374.24C896.863 375.444 896.737 376.907 896.737 378.628V384.57C896.737 385.942 896.814 387.153 896.968 388.203C897.136 389.252 897.381 390.162 897.703 390.932C898.025 391.688 898.417 392.311 898.879 392.801C899.341 393.291 899.873 393.655 900.474 393.893C901.09 394.117 901.769 394.229 902.511 394.229C903.463 394.229 904.296 394.047 905.01 393.683C905.723 393.319 906.318 392.752 906.794 391.982C907.284 391.198 907.648 390.197 907.886 388.979C908.124 387.748 908.243 386.278 908.243 384.57ZM936.981 379.279V383.94C936.981 386.446 936.757 388.56 936.309 390.281C935.861 392.003 935.217 393.389 934.377 394.438C933.537 395.488 932.523 396.251 931.333 396.727C930.157 397.189 928.827 397.42 927.344 397.42C926.168 397.42 925.083 397.273 924.089 396.979C923.095 396.685 922.199 396.216 921.402 395.572C920.618 394.914 919.946 394.061 919.386 393.011C918.826 391.961 918.399 390.687 918.105 389.189C917.811 387.692 917.664 385.942 917.664 383.94V379.279C917.664 376.774 917.888 374.674 918.336 372.98C918.798 371.287 919.449 369.929 920.289 368.907C921.129 367.871 922.136 367.13 923.312 366.682C924.502 366.234 925.832 366.01 927.302 366.01C928.491 366.01 929.583 366.157 930.577 366.451C931.585 366.731 932.481 367.186 933.264 367.815C934.048 368.431 934.713 369.257 935.259 370.293C935.819 371.315 936.246 372.568 936.54 374.051C936.834 375.535 936.981 377.278 936.981 379.279ZM933.075 384.57V378.628C933.075 377.257 932.991 376.053 932.823 375.017C932.67 373.967 932.439 373.071 932.131 372.33C931.823 371.588 931.431 370.986 930.955 370.524C930.493 370.062 929.954 369.726 929.338 369.516C928.736 369.292 928.057 369.18 927.302 369.18C926.378 369.18 925.559 369.355 924.845 369.705C924.131 370.041 923.529 370.58 923.039 371.322C922.563 372.064 922.199 373.036 921.948 374.24C921.696 375.444 921.57 376.907 921.57 378.628V384.57C921.57 385.942 921.647 387.153 921.801 388.203C921.969 389.252 922.213 390.162 922.535 390.932C922.857 391.688 923.249 392.311 923.711 392.801C924.173 393.291 924.705 393.655 925.307 393.893C925.923 394.117 926.602 394.229 927.344 394.229C928.295 394.229 929.128 394.047 929.842 393.683C930.556 393.319 931.151 392.752 931.627 391.982C932.117 391.198 932.481 390.197 932.719 388.979C932.956 387.748 933.075 386.278 933.075 384.57Z" fill="black"/>
<rect x="69" y="320" width="870" height="22" rx="11" fill="#D7D6FE"/>
<rect x="69" y="320" width="559" height="22" rx="11" fill="#1F1065"/>
<path d="M707.209 245.804H709.981C711.339 245.804 712.458 245.58 713.34 245.132C714.236 244.67 714.901 244.048 715.335 243.264C715.783 242.466 716.007 241.57 716.007 240.576C716.007 239.4 715.811 238.414 715.419 237.616C715.027 236.818 714.439 236.216 713.655 235.81C712.871 235.404 711.878 235.201 710.674 235.201C709.582 235.201 708.616 235.418 707.776 235.852C706.951 236.272 706.3 236.874 705.824 237.658C705.362 238.442 705.131 239.365 705.131 240.429H701.247C701.247 238.875 701.639 237.462 702.422 236.188C703.206 234.914 704.305 233.899 705.719 233.144C707.146 232.388 708.798 232.01 710.674 232.01C712.521 232.01 714.138 232.339 715.524 232.997C716.91 233.64 717.987 234.606 718.757 235.894C719.527 237.168 719.912 238.757 719.912 240.66C719.912 241.43 719.73 242.256 719.366 243.138C719.016 244.006 718.463 244.817 717.708 245.573C716.966 246.329 716 246.952 714.81 247.442C713.62 247.918 712.193 248.156 710.527 248.156H707.209V245.804ZM707.209 248.996V246.665H710.527C712.472 246.665 714.082 246.896 715.356 247.358C716.63 247.82 717.631 248.436 718.358 249.206C719.1 249.975 719.618 250.822 719.912 251.746C720.22 252.656 720.374 253.566 720.374 254.476C720.374 255.903 720.129 257.17 719.639 258.276C719.163 259.382 718.484 260.319 717.603 261.089C716.735 261.859 715.713 262.44 714.537 262.832C713.361 263.224 712.081 263.42 710.695 263.42C709.365 263.42 708.112 263.231 706.937 262.853C705.775 262.475 704.746 261.929 703.85 261.215C702.954 260.487 702.254 259.599 701.75 258.549C701.247 257.485 700.995 256.274 700.995 254.917H704.879C704.879 255.98 705.11 256.911 705.572 257.709C706.048 258.507 706.72 259.13 707.587 259.578C708.469 260.012 709.505 260.229 710.695 260.229C711.885 260.229 712.906 260.026 713.76 259.62C714.628 259.2 715.293 258.57 715.755 257.73C716.231 256.89 716.469 255.833 716.469 254.56C716.469 253.286 716.203 252.243 715.671 251.431C715.139 250.605 714.383 249.996 713.403 249.604C712.438 249.199 711.297 248.996 709.981 248.996H707.209ZM745.563 245.279V249.94C745.563 252.446 745.339 254.56 744.892 256.281C744.444 258.003 743.8 259.389 742.96 260.438C742.12 261.488 741.105 262.251 739.916 262.727C738.74 263.189 737.41 263.42 735.926 263.42C734.75 263.42 733.666 263.273 732.672 262.979C731.678 262.685 730.782 262.216 729.984 261.572C729.201 260.914 728.529 260.061 727.969 259.011C727.409 257.961 726.982 256.687 726.688 255.189C726.394 253.692 726.247 251.942 726.247 249.94V245.279C726.247 242.774 726.471 240.674 726.919 238.98C727.381 237.287 728.032 235.929 728.872 234.907C729.711 233.871 730.719 233.13 731.895 232.682C733.085 232.234 734.415 232.01 735.884 232.01C737.074 232.01 738.166 232.157 739.16 232.451C740.167 232.731 741.063 233.186 741.847 233.815C742.631 234.431 743.296 235.257 743.842 236.293C744.402 237.315 744.829 238.568 745.123 240.051C745.416 241.535 745.563 243.278 745.563 245.279ZM741.658 250.57V244.628C741.658 243.257 741.574 242.053 741.406 241.017C741.252 239.967 741.021 239.071 740.713 238.33C740.405 237.588 740.013 236.986 739.538 236.524C739.076 236.062 738.537 235.726 737.921 235.516C737.319 235.292 736.64 235.18 735.884 235.18C734.96 235.18 734.142 235.355 733.428 235.705C732.714 236.041 732.112 236.58 731.622 237.322C731.146 238.064 730.782 239.036 730.53 240.24C730.278 241.444 730.152 242.907 730.152 244.628V250.57C730.152 251.942 730.229 253.153 730.383 254.203C730.551 255.252 730.796 256.162 731.118 256.932C731.44 257.688 731.832 258.311 732.294 258.801C732.756 259.291 733.288 259.655 733.89 259.893C734.506 260.117 735.184 260.229 735.926 260.229C736.878 260.229 737.711 260.047 738.425 259.683C739.139 259.319 739.734 258.752 740.209 257.982C740.699 257.198 741.063 256.197 741.301 254.979C741.539 253.748 741.658 252.278 741.658 250.57ZM774.841 235.138L764.721 263H760.585L772.238 232.43H774.904L774.841 235.138ZM783.324 263L773.183 235.138L773.12 232.43H775.786L787.481 263H783.324ZM782.799 251.683V255H765.624V251.683H782.799ZM795.517 244.649V271.734H791.611V240.282H795.181L795.517 244.649ZM810.823 251.452V251.893C810.823 253.545 810.627 255.077 810.235 256.491C809.843 257.891 809.269 259.109 808.513 260.145C807.771 261.18 806.854 261.985 805.763 262.559C804.671 263.133 803.418 263.42 802.004 263.42C800.563 263.42 799.289 263.182 798.183 262.706C797.077 262.23 796.139 261.537 795.37 260.627C794.6 259.718 793.984 258.626 793.522 257.352C793.074 256.078 792.766 254.644 792.598 253.048V250.696C792.766 249.017 793.081 247.512 793.543 246.182C794.005 244.852 794.614 243.719 795.37 242.781C796.139 241.829 797.07 241.108 798.162 240.618C799.254 240.114 800.514 239.862 801.941 239.862C803.369 239.862 804.636 240.142 805.742 240.702C806.847 241.248 807.778 242.032 808.534 243.054C809.29 244.076 809.857 245.3 810.235 246.728C810.627 248.142 810.823 249.716 810.823 251.452ZM806.917 251.893V251.452C806.917 250.318 806.798 249.255 806.56 248.261C806.323 247.253 805.952 246.371 805.448 245.615C804.958 244.845 804.328 244.243 803.558 243.81C802.788 243.362 801.871 243.138 800.808 243.138C799.828 243.138 798.974 243.306 798.246 243.642C797.532 243.978 796.923 244.432 796.419 245.006C795.915 245.566 795.503 246.21 795.181 246.938C794.873 247.652 794.642 248.394 794.488 249.164V254.602C794.768 255.581 795.16 256.505 795.663 257.373C796.167 258.227 796.839 258.92 797.679 259.452C798.519 259.97 799.576 260.229 800.85 260.229C801.899 260.229 802.802 260.012 803.558 259.578C804.328 259.13 804.958 258.521 805.448 257.751C805.952 256.981 806.323 256.099 806.56 255.105C806.798 254.098 806.917 253.027 806.917 251.893ZM820.307 243.852V263H816.423V240.282H820.202L820.307 243.852ZM827.404 240.156L827.383 243.768C827.061 243.698 826.753 243.656 826.459 243.642C826.179 243.614 825.857 243.6 825.493 243.6C824.597 243.6 823.806 243.74 823.121 244.02C822.435 244.299 821.854 244.691 821.378 245.195C820.902 245.699 820.524 246.301 820.244 247.001C819.978 247.687 819.803 248.443 819.719 249.269L818.627 249.898C818.627 248.527 818.76 247.239 819.026 246.035C819.306 244.831 819.733 243.768 820.307 242.844C820.881 241.906 821.609 241.178 822.491 240.66C823.386 240.128 824.45 239.862 825.682 239.862C825.962 239.862 826.284 239.897 826.648 239.967C827.012 240.023 827.264 240.086 827.404 240.156ZM862.56 259.809V263H842.551V260.208L852.566 249.059C853.798 247.687 854.75 246.525 855.422 245.573C856.108 244.607 856.584 243.747 856.849 242.991C857.129 242.221 857.269 241.437 857.269 240.639C857.269 239.631 857.059 238.722 856.64 237.91C856.234 237.084 855.632 236.426 854.834 235.936C854.036 235.446 853.07 235.201 851.936 235.201C850.579 235.201 849.445 235.467 848.535 235.999C847.639 236.517 846.967 237.245 846.519 238.183C846.071 239.12 845.848 240.198 845.848 241.416H841.963C841.963 239.694 842.341 238.12 843.097 236.692C843.853 235.264 844.973 234.13 846.456 233.291C847.94 232.437 849.767 232.01 851.936 232.01C853.868 232.01 855.52 232.353 856.891 233.039C858.263 233.71 859.313 234.662 860.041 235.894C860.783 237.112 861.154 238.54 861.154 240.177C861.154 241.073 861 241.983 860.692 242.907C860.398 243.817 859.985 244.726 859.453 245.636C858.935 246.546 858.326 247.442 857.626 248.324C856.94 249.206 856.206 250.073 855.422 250.927L847.233 259.809H862.56ZM886.553 245.279V249.94C886.553 252.446 886.329 254.56 885.881 256.281C885.433 258.003 884.789 259.389 883.95 260.438C883.11 261.488 882.095 262.251 880.905 262.727C879.729 263.189 878.4 263.42 876.916 263.42C875.74 263.42 874.655 263.273 873.661 262.979C872.668 262.685 871.772 262.216 870.974 261.572C870.19 260.914 869.518 260.061 868.958 259.011C868.398 257.961 867.972 256.687 867.678 255.189C867.384 253.692 867.237 251.942 867.237 249.94V245.279C867.237 242.774 867.461 240.674 867.909 238.98C868.37 237.287 869.021 235.929 869.861 234.907C870.701 233.871 871.709 233.13 872.885 232.682C874.074 232.234 875.404 232.01 876.874 232.01C878.064 232.01 879.155 232.157 880.149 232.451C881.157 232.731 882.053 233.186 882.837 233.815C883.621 234.431 884.285 235.257 884.831 236.293C885.391 237.315 885.818 238.568 886.112 240.051C886.406 241.535 886.553 243.278 886.553 245.279ZM882.648 250.57V244.628C882.648 243.257 882.564 242.053 882.396 241.017C882.242 239.967 882.011 239.071 881.703 238.33C881.395 237.588 881.003 236.986 880.527 236.524C880.065 236.062 879.526 235.726 878.91 235.516C878.309 235.292 877.63 235.18 876.874 235.18C875.95 235.18 875.131 235.355 874.417 235.705C873.703 236.041 873.102 236.58 872.612 237.322C872.136 238.064 871.772 239.036 871.52 240.24C871.268 241.444 871.142 242.907 871.142 244.628V250.57C871.142 251.942 871.219 253.153 871.373 254.203C871.541 255.252 871.786 256.162 872.108 256.932C872.43 257.688 872.822 258.311 873.284 258.801C873.745 259.291 874.277 259.655 874.879 259.893C875.495 260.117 876.174 260.229 876.916 260.229C877.868 260.229 878.701 260.047 879.414 259.683C880.128 259.319 880.723 258.752 881.199 257.982C881.689 257.198 882.053 256.197 882.291 254.979C882.529 253.748 882.648 252.278 882.648 250.57ZM912.225 259.809V263H892.216V260.208L902.231 249.059C903.463 247.687 904.415 246.525 905.087 245.573C905.773 244.607 906.249 243.747 906.514 242.991C906.794 242.221 906.934 241.437 906.934 240.639C906.934 239.631 906.724 238.722 906.305 237.91C905.899 237.084 905.297 236.426 904.499 235.936C903.701 235.446 902.735 235.201 901.601 235.201C900.244 235.201 899.11 235.467 898.2 235.999C897.304 236.517 896.632 237.245 896.184 238.183C895.736 239.12 895.513 240.198 895.513 241.416H891.628C891.628 239.694 892.006 238.12 892.762 236.692C893.518 235.264 894.638 234.13 896.121 233.291C897.605 232.437 899.432 232.01 901.601 232.01C903.533 232.01 905.185 232.353 906.556 233.039C907.928 233.71 908.978 234.662 909.706 235.894C910.448 237.112 910.819 238.54 910.819 240.177C910.819 241.073 910.665 241.983 910.357 242.907C910.063 243.817 909.65 244.726 909.118 245.636C908.6 246.546 907.991 247.442 907.291 248.324C906.605 249.206 905.871 250.073 905.087 250.927L896.898 259.809H912.225ZM931.935 232.388H932.271V235.684H931.935C929.877 235.684 928.156 236.02 926.77 236.692C925.384 237.35 924.285 238.239 923.473 239.358C922.662 240.464 922.074 241.71 921.71 243.096C921.36 244.481 921.185 245.888 921.185 247.316V251.809C921.185 253.167 921.346 254.371 921.668 255.42C921.99 256.456 922.431 257.331 922.991 258.045C923.55 258.759 924.18 259.298 924.88 259.662C925.594 260.026 926.336 260.208 927.106 260.208C928.002 260.208 928.799 260.04 929.499 259.704C930.199 259.354 930.787 258.871 931.263 258.255C931.753 257.625 932.124 256.883 932.376 256.029C932.628 255.175 932.754 254.238 932.754 253.216C932.754 252.306 932.642 251.431 932.418 250.591C932.194 249.737 931.851 248.982 931.389 248.324C930.927 247.652 930.346 247.127 929.646 246.749C928.96 246.357 928.142 246.161 927.19 246.161C926.112 246.161 925.104 246.427 924.166 246.959C923.242 247.477 922.48 248.163 921.878 249.017C921.29 249.856 920.954 250.773 920.87 251.767L918.812 251.746C919.008 250.178 919.372 248.842 919.904 247.736C920.45 246.616 921.122 245.706 921.92 245.006C922.732 244.292 923.634 243.775 924.628 243.453C925.636 243.117 926.7 242.949 927.82 242.949C929.345 242.949 930.661 243.236 931.767 243.81C932.873 244.383 933.783 245.153 934.496 246.119C935.21 247.071 935.735 248.149 936.071 249.353C936.421 250.542 936.596 251.767 936.596 253.027C936.596 254.469 936.393 255.819 935.987 257.079C935.581 258.339 934.972 259.445 934.16 260.396C933.363 261.348 932.376 262.09 931.2 262.622C930.024 263.154 928.659 263.42 927.106 263.42C925.454 263.42 924.012 263.084 922.781 262.412C921.549 261.726 920.527 260.816 919.715 259.683C918.903 258.549 918.294 257.289 917.888 255.903C917.483 254.518 917.28 253.111 917.28 251.683V249.856C917.28 247.701 917.497 245.587 917.93 243.516C918.364 241.444 919.113 239.568 920.177 237.889C921.255 236.209 922.746 234.872 924.649 233.878C926.553 232.885 928.981 232.388 931.935 232.388Z" fill="black"/>
<path d="M785.117 197.822V202H768.887V197.822H785.117ZM770.377 171.43V202H765.107V171.43H770.377ZM782.996 184.195V188.311H768.887V184.195H782.996ZM785.012 171.43V175.629H768.887V171.43H785.012ZM794.58 184.132V202H789.52V179.282H794.286L794.58 184.132ZM793.677 189.801L792.04 189.78C792.054 188.171 792.277 186.694 792.711 185.35C793.159 184.006 793.775 182.852 794.559 181.886C795.357 180.92 796.309 180.178 797.415 179.66C798.52 179.128 799.752 178.862 801.11 178.862C802.202 178.862 803.188 179.016 804.07 179.324C804.966 179.618 805.729 180.101 806.359 180.773C807.003 181.445 807.493 182.32 807.829 183.397C808.165 184.461 808.333 185.77 808.333 187.324V202H803.251V187.303C803.251 186.211 803.09 185.35 802.769 184.72C802.461 184.076 802.006 183.621 801.404 183.355C800.816 183.076 800.081 182.936 799.199 182.936C798.331 182.936 797.555 183.118 796.869 183.481C796.183 183.845 795.602 184.342 795.126 184.972C794.664 185.602 794.307 186.33 794.055 187.156C793.803 187.982 793.677 188.863 793.677 189.801ZM828 197.297V169.75H833.081V202H828.483L828 197.297ZM813.219 190.893V190.452C813.219 188.73 813.422 187.163 813.828 185.749C814.234 184.321 814.821 183.097 815.591 182.075C816.361 181.039 817.299 180.248 818.405 179.702C819.511 179.142 820.756 178.862 822.142 178.862C823.514 178.862 824.718 179.128 825.753 179.66C826.789 180.192 827.671 180.955 828.399 181.949C829.127 182.929 829.708 184.104 830.142 185.476C830.575 186.834 830.883 188.346 831.065 190.011V191.418C830.883 193.042 830.575 194.525 830.142 195.869C829.708 197.213 829.127 198.375 828.399 199.354C827.671 200.334 826.782 201.09 825.732 201.622C824.697 202.154 823.486 202.42 822.1 202.42C820.728 202.42 819.49 202.133 818.384 201.559C817.292 200.985 816.361 200.18 815.591 199.145C814.821 198.109 814.234 196.891 813.828 195.491C813.422 194.077 813.219 192.545 813.219 190.893ZM818.279 190.452V190.893C818.279 191.929 818.37 192.895 818.552 193.791C818.748 194.686 819.049 195.477 819.455 196.163C819.86 196.835 820.385 197.367 821.029 197.759C821.687 198.137 822.471 198.326 823.381 198.326C824.529 198.326 825.473 198.074 826.215 197.57C826.957 197.066 827.538 196.387 827.958 195.533C828.392 194.665 828.686 193.7 828.84 192.636V188.835C828.756 188.01 828.581 187.24 828.315 186.526C828.063 185.812 827.72 185.189 827.286 184.657C826.852 184.111 826.313 183.691 825.669 183.397C825.04 183.09 824.291 182.936 823.423 182.936C822.499 182.936 821.715 183.132 821.071 183.523C820.427 183.915 819.895 184.454 819.476 185.14C819.07 185.826 818.769 186.624 818.573 187.534C818.377 188.444 818.279 189.416 818.279 190.452ZM859.755 202H853.226L853.268 197.822H859.755C861.645 197.822 863.227 197.409 864.5 196.583C865.788 195.757 866.754 194.574 867.398 193.035C868.056 191.495 868.385 189.661 868.385 187.534V185.875C868.385 184.223 868.196 182.761 867.818 181.487C867.454 180.213 866.908 179.142 866.18 178.274C865.466 177.407 864.584 176.749 863.535 176.301C862.499 175.853 861.302 175.629 859.944 175.629H853.1V171.43H859.944C861.974 171.43 863.829 171.773 865.508 172.458C867.188 173.13 868.637 174.103 869.854 175.377C871.086 176.651 872.031 178.176 872.689 179.954C873.347 181.732 873.676 183.719 873.676 185.917V187.534C873.676 189.731 873.347 191.719 872.689 193.497C872.031 195.274 871.086 196.8 869.854 198.074C868.623 199.333 867.153 200.306 865.445 200.992C863.752 201.664 861.855 202 859.755 202ZM856.144 171.43V202H850.874V171.43H856.144ZM891.915 197.444V186.61C891.915 185.798 891.768 185.098 891.475 184.51C891.181 183.922 890.733 183.467 890.131 183.146C889.543 182.824 888.801 182.663 887.905 182.663C887.079 182.663 886.365 182.803 885.764 183.083C885.162 183.362 884.693 183.74 884.357 184.216C884.021 184.692 883.853 185.231 883.853 185.833H878.814C878.814 184.937 879.031 184.069 879.465 183.229C879.899 182.39 880.529 181.641 881.354 180.983C882.18 180.325 883.167 179.807 884.315 179.429C885.463 179.051 886.75 178.862 888.178 178.862C889.886 178.862 891.398 179.149 892.713 179.723C894.043 180.297 895.086 181.165 895.842 182.327C896.612 183.474 896.996 184.916 896.996 186.652V196.751C896.996 197.787 897.066 198.718 897.206 199.543C897.36 200.355 897.577 201.062 897.857 201.664V202H892.671C892.433 201.454 892.244 200.761 892.104 199.921C891.978 199.068 891.915 198.242 891.915 197.444ZM892.65 188.185L892.692 191.313H889.06C888.122 191.313 887.296 191.404 886.582 191.586C885.869 191.754 885.274 192.006 884.798 192.342C884.322 192.678 883.965 193.084 883.727 193.56C883.489 194.035 883.37 194.574 883.37 195.176C883.37 195.778 883.51 196.331 883.79 196.835C884.07 197.325 884.476 197.71 885.008 197.99C885.554 198.27 886.211 198.41 886.981 198.41C888.017 198.41 888.92 198.2 889.69 197.78C890.474 197.346 891.09 196.821 891.537 196.205C891.985 195.575 892.223 194.98 892.251 194.42L893.889 196.667C893.721 197.241 893.434 197.857 893.028 198.515C892.622 199.173 892.09 199.802 891.433 200.404C890.789 200.992 890.012 201.475 889.102 201.853C888.206 202.231 887.17 202.42 885.995 202.42C884.511 202.42 883.188 202.126 882.026 201.538C880.864 200.936 879.955 200.131 879.297 199.124C878.639 198.102 878.31 196.947 878.31 195.659C878.31 194.455 878.534 193.392 878.982 192.468C879.444 191.53 880.116 190.746 880.997 190.116C881.893 189.486 882.985 189.01 884.273 188.688C885.561 188.353 887.03 188.185 888.682 188.185H892.65ZM913.347 179.282V182.978H900.539V179.282H913.347ZM904.234 173.718H909.294V195.722C909.294 196.422 909.392 196.961 909.588 197.339C909.798 197.703 910.085 197.948 910.449 198.074C910.813 198.2 911.24 198.263 911.73 198.263C912.08 198.263 912.416 198.242 912.738 198.2C913.06 198.158 913.319 198.116 913.515 198.074L913.536 201.937C913.116 202.063 912.626 202.175 912.066 202.273C911.52 202.371 910.89 202.42 910.176 202.42C909.014 202.42 907.986 202.217 907.09 201.811C906.194 201.391 905.494 200.712 904.99 199.774C904.486 198.837 904.234 197.591 904.234 196.037V173.718ZM927.912 202.42C926.232 202.42 924.714 202.147 923.356 201.601C922.012 201.041 920.864 200.264 919.912 199.271C918.975 198.277 918.254 197.108 917.75 195.764C917.246 194.42 916.994 192.972 916.994 191.418V190.578C916.994 188.8 917.253 187.191 917.771 185.749C918.289 184.307 919.01 183.076 919.933 182.054C920.857 181.018 921.949 180.227 923.209 179.681C924.469 179.135 925.833 178.862 927.303 178.862C928.927 178.862 930.348 179.135 931.565 179.681C932.783 180.227 933.791 180.997 934.589 181.991C935.401 182.971 936.002 184.139 936.394 185.497C936.8 186.855 937.003 188.353 937.003 189.99V192.153H919.451V188.521H932.006V188.122C931.978 187.212 931.796 186.358 931.46 185.56C931.138 184.762 930.641 184.118 929.97 183.628C929.298 183.139 928.402 182.894 927.282 182.894C926.442 182.894 925.693 183.076 925.036 183.439C924.392 183.789 923.853 184.3 923.419 184.972C922.985 185.644 922.649 186.456 922.411 187.408C922.187 188.346 922.075 189.402 922.075 190.578V191.418C922.075 192.412 922.208 193.336 922.474 194.189C922.754 195.029 923.16 195.764 923.692 196.394C924.224 197.024 924.868 197.521 925.623 197.885C926.379 198.235 927.24 198.41 928.206 198.41C929.424 198.41 930.508 198.165 931.46 197.675C932.412 197.185 933.238 196.492 933.938 195.596L936.604 198.179C936.114 198.893 935.478 199.578 934.694 200.236C933.91 200.88 932.951 201.405 931.817 201.811C930.697 202.217 929.396 202.42 927.912 202.42Z" fill="black"/>
<path d="M90.731 245.279V249.94C90.731 252.446 90.507 254.56 90.0591 256.281C89.6112 258.003 88.9673 259.389 88.1274 260.438C87.2876 261.488 86.2728 262.251 85.083 262.727C83.9072 263.189 82.5775 263.42 81.0938 263.42C79.918 263.42 78.8332 263.273 77.8394 262.979C76.8455 262.685 75.9497 262.216 75.1519 261.572C74.368 260.914 73.6961 260.061 73.1362 259.011C72.5763 257.961 72.1494 256.687 71.8555 255.189C71.5615 253.692 71.4146 251.942 71.4146 249.94V245.279C71.4146 242.774 71.6385 240.674 72.0864 238.98C72.5483 237.287 73.1992 235.929 74.0391 234.907C74.8789 233.871 75.8867 233.13 77.0625 232.682C78.2523 232.234 79.582 232.01 81.0518 232.01C82.2415 232.01 83.3333 232.157 84.3271 232.451C85.335 232.731 86.2308 233.186 87.0146 233.815C87.7985 234.431 88.4634 235.257 89.0093 236.293C89.5692 237.315 89.9961 238.568 90.29 240.051C90.584 241.535 90.731 243.278 90.731 245.279ZM86.8257 250.57V244.628C86.8257 243.257 86.7417 242.053 86.5737 241.017C86.4198 239.967 86.1888 239.071 85.8809 238.33C85.5729 237.588 85.181 236.986 84.7051 236.524C84.2432 236.062 83.7043 235.726 83.0884 235.516C82.4865 235.292 81.8076 235.18 81.0518 235.18C80.1279 235.18 79.3091 235.355 78.5952 235.705C77.8813 236.041 77.2795 236.58 76.7896 237.322C76.3136 238.064 75.9497 239.036 75.6978 240.24C75.4458 241.444 75.3198 242.907 75.3198 244.628V250.57C75.3198 251.942 75.3968 253.153 75.5508 254.203C75.7188 255.252 75.9637 256.162 76.2856 256.932C76.6076 257.688 76.9995 258.311 77.4614 258.801C77.9233 259.291 78.4552 259.655 79.0571 259.893C79.673 260.117 80.3519 260.229 81.0938 260.229C82.0456 260.229 82.8784 260.047 83.5923 259.683C84.3062 259.319 84.901 258.752 85.377 257.982C85.8669 257.198 86.2308 256.197 86.4688 254.979C86.7067 253.748 86.8257 252.278 86.8257 250.57ZM109.139 232.262V263H105.254V237.112L97.4228 239.967V236.461L108.53 232.262H109.139ZM144.841 235.138L134.721 263H130.585L142.238 232.43H144.904L144.841 235.138ZM153.324 263L143.183 235.138L143.12 232.43H145.786L157.481 263H153.324ZM152.799 251.683V255H135.624V251.683H152.799ZM165.517 244.649V271.734H161.611V240.282H165.181L165.517 244.649ZM180.823 251.452V251.893C180.823 253.545 180.627 255.077 180.235 256.491C179.843 257.891 179.269 259.109 178.513 260.145C177.771 261.18 176.854 261.985 175.763 262.559C174.671 263.133 173.418 263.42 172.004 263.42C170.563 263.42 169.289 263.182 168.183 262.706C167.077 262.23 166.139 261.537 165.37 260.627C164.6 259.718 163.984 258.626 163.522 257.352C163.074 256.078 162.766 254.644 162.598 253.048V250.696C162.766 249.017 163.081 247.512 163.543 246.182C164.005 244.852 164.614 243.719 165.37 242.781C166.139 241.829 167.07 241.108 168.162 240.618C169.254 240.114 170.514 239.862 171.941 239.862C173.369 239.862 174.636 240.142 175.742 240.702C176.847 241.248 177.778 242.032 178.534 243.054C179.29 244.076 179.857 245.3 180.235 246.728C180.627 248.142 180.823 249.716 180.823 251.452ZM176.917 251.893V251.452C176.917 250.318 176.798 249.255 176.56 248.261C176.323 247.253 175.952 246.371 175.448 245.615C174.958 244.845 174.328 244.243 173.558 243.81C172.788 243.362 171.871 243.138 170.808 243.138C169.828 243.138 168.974 243.306 168.246 243.642C167.532 243.978 166.923 244.432 166.419 245.006C165.915 245.566 165.503 246.21 165.181 246.938C164.873 247.652 164.642 248.394 164.488 249.164V254.602C164.768 255.581 165.16 256.505 165.663 257.373C166.167 258.227 166.839 258.92 167.679 259.452C168.519 259.97 169.576 260.229 170.85 260.229C171.899 260.229 172.802 260.012 173.558 259.578C174.328 259.13 174.958 258.521 175.448 257.751C175.952 256.981 176.323 256.099 176.56 255.105C176.798 254.098 176.917 253.027 176.917 251.893ZM190.307 243.852V263H186.423V240.282H190.202L190.307 243.852ZM197.404 240.156L197.383 243.768C197.061 243.698 196.753 243.656 196.459 243.642C196.179 243.614 195.857 243.6 195.493 243.6C194.597 243.6 193.806 243.74 193.121 244.02C192.435 244.299 191.854 244.691 191.378 245.195C190.902 245.699 190.524 246.301 190.244 247.001C189.978 247.687 189.803 248.443 189.719 249.269L188.627 249.898C188.627 248.527 188.76 247.239 189.026 246.035C189.306 244.831 189.733 243.768 190.307 242.844C190.881 241.906 191.609 241.178 192.491 240.66C193.386 240.128 194.45 239.862 195.682 239.862C195.962 239.862 196.284 239.897 196.648 239.967C197.012 240.023 197.264 240.086 197.404 240.156ZM232.56 259.809V263H212.551V260.208L222.566 249.059C223.798 247.687 224.75 246.525 225.422 245.573C226.108 244.607 226.584 243.747 226.849 242.991C227.129 242.221 227.269 241.437 227.269 240.639C227.269 239.631 227.059 238.722 226.64 237.91C226.234 237.084 225.632 236.426 224.834 235.936C224.036 235.446 223.07 235.201 221.936 235.201C220.579 235.201 219.445 235.467 218.535 235.999C217.639 236.517 216.967 237.245 216.519 238.183C216.071 239.12 215.848 240.198 215.848 241.416H211.963C211.963 239.694 212.341 238.12 213.097 236.692C213.853 235.264 214.973 234.13 216.456 233.291C217.94 232.437 219.767 232.01 221.936 232.01C223.868 232.01 225.52 232.353 226.891 233.039C228.263 233.71 229.313 234.662 230.041 235.894C230.783 237.112 231.154 238.54 231.154 240.177C231.154 241.073 231 241.983 230.692 242.907C230.398 243.817 229.985 244.726 229.453 245.636C228.935 246.546 228.326 247.442 227.626 248.324C226.94 249.206 226.206 250.073 225.422 250.927L217.233 259.809H232.56ZM256.553 245.279V249.94C256.553 252.446 256.329 254.56 255.881 256.281C255.433 258.003 254.789 259.389 253.95 260.438C253.11 261.488 252.095 262.251 250.905 262.727C249.729 263.189 248.4 263.42 246.916 263.42C245.74 263.42 244.655 263.273 243.661 262.979C242.668 262.685 241.772 262.216 240.974 261.572C240.19 260.914 239.518 260.061 238.958 259.011C238.398 257.961 237.972 256.687 237.678 255.189C237.384 253.692 237.237 251.942 237.237 249.94V245.279C237.237 242.774 237.461 240.674 237.909 238.98C238.37 237.287 239.021 235.929 239.861 234.907C240.701 233.871 241.709 233.13 242.885 232.682C244.074 232.234 245.404 232.01 246.874 232.01C248.064 232.01 249.155 232.157 250.149 232.451C251.157 232.731 252.053 233.186 252.837 233.815C253.621 234.431 254.285 235.257 254.831 236.293C255.391 237.315 255.818 238.568 256.112 240.051C256.406 241.535 256.553 243.278 256.553 245.279ZM252.648 250.57V244.628C252.648 243.257 252.564 242.053 252.396 241.017C252.242 239.967 252.011 239.071 251.703 238.33C251.395 237.588 251.003 236.986 250.527 236.524C250.065 236.062 249.526 235.726 248.91 235.516C248.309 235.292 247.63 235.18 246.874 235.18C245.95 235.18 245.131 235.355 244.417 235.705C243.703 236.041 243.102 236.58 242.612 237.322C242.136 238.064 241.772 239.036 241.52 240.24C241.268 241.444 241.142 242.907 241.142 244.628V250.57C241.142 251.942 241.219 253.153 241.373 254.203C241.541 255.252 241.786 256.162 242.108 256.932C242.43 257.688 242.822 258.311 243.284 258.801C243.745 259.291 244.277 259.655 244.879 259.893C245.495 260.117 246.174 260.229 246.916 260.229C247.868 260.229 248.701 260.047 249.414 259.683C250.128 259.319 250.723 258.752 251.199 257.982C251.689 257.198 252.053 256.197 252.291 254.979C252.529 253.748 252.648 252.278 252.648 250.57ZM282.225 259.809V263H262.216V260.208L272.231 249.059C273.463 247.687 274.415 246.525 275.087 245.573C275.773 244.607 276.249 243.747 276.514 242.991C276.794 242.221 276.934 241.437 276.934 240.639C276.934 239.631 276.724 238.722 276.305 237.91C275.899 237.084 275.297 236.426 274.499 235.936C273.701 235.446 272.735 235.201 271.601 235.201C270.244 235.201 269.11 235.467 268.2 235.999C267.304 236.517 266.632 237.245 266.184 238.183C265.736 239.12 265.513 240.198 265.513 241.416H261.628C261.628 239.694 262.006 238.12 262.762 236.692C263.518 235.264 264.638 234.13 266.121 233.291C267.605 232.437 269.432 232.01 271.601 232.01C273.533 232.01 275.185 232.353 276.556 233.039C277.928 233.71 278.978 234.662 279.706 235.894C280.448 237.112 280.819 238.54 280.819 240.177C280.819 241.073 280.665 241.983 280.357 242.907C280.063 243.817 279.65 244.726 279.118 245.636C278.6 246.546 277.991 247.442 277.291 248.324C276.605 249.206 275.871 250.073 275.087 250.927L266.898 259.809H282.225ZM301.935 232.388H302.271V235.684H301.935C299.877 235.684 298.156 236.02 296.77 236.692C295.384 237.35 294.285 238.239 293.473 239.358C292.662 240.464 292.074 241.71 291.71 243.096C291.36 244.481 291.185 245.888 291.185 247.316V251.809C291.185 253.167 291.346 254.371 291.668 255.42C291.99 256.456 292.431 257.331 292.991 258.045C293.55 258.759 294.18 259.298 294.88 259.662C295.594 260.026 296.336 260.208 297.106 260.208C298.002 260.208 298.799 260.04 299.499 259.704C300.199 259.354 300.787 258.871 301.263 258.255C301.753 257.625 302.124 256.883 302.376 256.029C302.628 255.175 302.754 254.238 302.754 253.216C302.754 252.306 302.642 251.431 302.418 250.591C302.194 249.737 301.851 248.982 301.389 248.324C300.927 247.652 300.346 247.127 299.646 246.749C298.96 246.357 298.142 246.161 297.19 246.161C296.112 246.161 295.104 246.427 294.166 246.959C293.242 247.477 292.48 248.163 291.878 249.017C291.29 249.856 290.954 250.773 290.87 251.767L288.812 251.746C289.008 250.178 289.372 248.842 289.904 247.736C290.45 246.616 291.122 245.706 291.92 245.006C292.732 244.292 293.634 243.775 294.628 243.453C295.636 243.117 296.7 242.949 297.82 242.949C299.345 242.949 300.661 243.236 301.767 243.81C302.873 244.383 303.783 245.153 304.496 246.119C305.21 247.071 305.735 248.149 306.071 249.353C306.421 250.542 306.596 251.767 306.596 253.027C306.596 254.469 306.393 255.819 305.987 257.079C305.581 258.339 304.972 259.445 304.16 260.396C303.363 261.348 302.376 262.09 301.2 262.622C300.024 263.154 298.659 263.42 297.106 263.42C295.454 263.42 294.012 263.084 292.781 262.412C291.549 261.726 290.527 260.816 289.715 259.683C288.903 258.549 288.294 257.289 287.888 255.903C287.483 254.518 287.28 253.111 287.28 251.683V249.856C287.28 247.701 287.497 245.587 287.93 243.516C288.364 241.444 289.113 239.568 290.177 237.889C291.255 236.209 292.746 234.872 294.649 233.878C296.553 232.885 298.981 232.388 301.935 232.388Z" fill="black"/>
<path d="M88.1904 194.126C88.1904 193.497 88.0924 192.937 87.8965 192.447C87.7145 191.957 87.3856 191.509 86.9097 191.103C86.4338 190.697 85.7619 190.305 84.894 189.927C84.0402 189.535 82.9484 189.136 81.6187 188.73C80.1629 188.283 78.8192 187.786 77.5874 187.24C76.3696 186.68 75.3058 186.036 74.396 185.308C73.4862 184.566 72.7793 183.719 72.2754 182.768C71.7715 181.802 71.5195 180.689 71.5195 179.429C71.5195 178.183 71.7785 177.05 72.2964 176.028C72.8283 175.006 73.5771 174.124 74.543 173.382C75.5228 172.626 76.6776 172.046 78.0073 171.64C79.3371 171.22 80.8068 171.01 82.4165 171.01C84.6841 171.01 86.6367 171.43 88.2744 172.27C89.9261 173.109 91.1929 174.236 92.0747 175.65C92.9705 177.064 93.4185 178.624 93.4185 180.332H88.1904C88.1904 179.324 87.9735 178.435 87.5396 177.666C87.1196 176.882 86.4757 176.266 85.6079 175.818C84.7541 175.37 83.6693 175.146 82.3535 175.146C81.1077 175.146 80.0719 175.335 79.2461 175.713C78.4202 176.091 77.8044 176.602 77.3984 177.246C76.9925 177.889 76.7896 178.617 76.7896 179.429C76.7896 180.003 76.9225 180.528 77.1885 181.004C77.4544 181.466 77.8604 181.9 78.4062 182.306C78.9521 182.698 79.638 183.069 80.4639 183.418C81.2897 183.768 82.2625 184.104 83.3823 184.426C85.076 184.93 86.5527 185.49 87.8125 186.106C89.0723 186.708 90.1221 187.394 90.9619 188.164C91.8018 188.933 92.4316 189.808 92.8516 190.788C93.2715 191.754 93.4814 192.853 93.4814 194.084C93.4814 195.372 93.2225 196.534 92.7046 197.57C92.1867 198.592 91.4448 199.466 90.479 200.194C89.5272 200.908 88.3794 201.461 87.0356 201.853C85.7059 202.231 84.2222 202.42 82.5845 202.42C81.1147 202.42 79.666 202.224 78.2383 201.832C76.8245 201.44 75.5368 200.845 74.375 200.047C73.2132 199.236 72.2894 198.228 71.6035 197.024C70.9176 195.806 70.5747 194.385 70.5747 192.762H75.8447C75.8447 193.756 76.0127 194.602 76.3486 195.302C76.6986 196.002 77.1815 196.576 77.7974 197.024C78.4132 197.458 79.1271 197.78 79.939 197.99C80.7648 198.2 81.6466 198.305 82.5845 198.305C83.8162 198.305 84.8451 198.13 85.6709 197.78C86.5107 197.43 87.1406 196.94 87.5605 196.31C87.9805 195.68 88.1904 194.952 88.1904 194.126ZM108.698 179.282V182.978H95.8901V179.282H108.698ZM99.5854 173.718H104.645V195.722C104.645 196.422 104.743 196.961 104.939 197.339C105.149 197.703 105.436 197.948 105.8 198.074C106.164 198.2 106.591 198.263 107.081 198.263C107.431 198.263 107.767 198.242 108.089 198.2C108.411 198.158 108.67 198.116 108.866 198.074L108.887 201.937C108.467 202.063 107.977 202.175 107.417 202.273C106.871 202.371 106.241 202.42 105.527 202.42C104.366 202.42 103.337 202.217 102.441 201.811C101.545 201.391 100.845 200.712 100.341 199.774C99.8374 198.837 99.5854 197.591 99.5854 196.037V173.718ZM126.056 197.444V186.61C126.056 185.798 125.909 185.098 125.615 184.51C125.321 183.922 124.873 183.467 124.271 183.146C123.683 182.824 122.941 182.663 122.045 182.663C121.22 182.663 120.506 182.803 119.904 183.083C119.302 183.362 118.833 183.74 118.497 184.216C118.161 184.692 117.993 185.231 117.993 185.833H112.954C112.954 184.937 113.171 184.069 113.605 183.229C114.039 182.39 114.669 181.641 115.495 180.983C116.32 180.325 117.307 179.807 118.455 179.429C119.603 179.051 120.891 178.862 122.318 178.862C124.026 178.862 125.538 179.149 126.853 179.723C128.183 180.297 129.226 181.165 129.982 182.327C130.752 183.474 131.137 184.916 131.137 186.652V196.751C131.137 197.787 131.207 198.718 131.347 199.543C131.501 200.355 131.718 201.062 131.998 201.664V202H126.811C126.574 201.454 126.385 200.761 126.245 199.921C126.119 199.068 126.056 198.242 126.056 197.444ZM126.79 188.185L126.832 191.313H123.2C122.262 191.313 121.436 191.404 120.723 191.586C120.009 191.754 119.414 192.006 118.938 192.342C118.462 192.678 118.105 193.084 117.867 193.56C117.629 194.035 117.51 194.574 117.51 195.176C117.51 195.778 117.65 196.331 117.93 196.835C118.21 197.325 118.616 197.71 119.148 197.99C119.694 198.27 120.352 198.41 121.122 198.41C122.157 198.41 123.06 198.2 123.83 197.78C124.614 197.346 125.23 196.821 125.678 196.205C126.126 195.575 126.364 194.98 126.392 194.42L128.029 196.667C127.861 197.241 127.574 197.857 127.168 198.515C126.762 199.173 126.231 199.802 125.573 200.404C124.929 200.992 124.152 201.475 123.242 201.853C122.346 202.231 121.311 202.42 120.135 202.42C118.651 202.42 117.328 202.126 116.166 201.538C115.005 200.936 114.095 200.131 113.437 199.124C112.779 198.102 112.45 196.947 112.45 195.659C112.45 194.455 112.674 193.392 113.122 192.468C113.584 191.53 114.256 190.746 115.138 190.116C116.033 189.486 117.125 189.01 118.413 188.688C119.701 188.353 121.171 188.185 122.822 188.185H126.79ZM142.154 183.607V202H137.094V179.282H141.923L142.154 183.607ZM149.103 179.135L149.061 183.838C148.754 183.782 148.418 183.74 148.054 183.712C147.704 183.684 147.354 183.67 147.004 183.67C146.136 183.67 145.373 183.796 144.715 184.048C144.057 184.286 143.504 184.636 143.057 185.098C142.623 185.546 142.287 186.092 142.049 186.736C141.811 187.38 141.671 188.101 141.629 188.898L140.474 188.982C140.474 187.555 140.614 186.232 140.894 185.014C141.174 183.796 141.594 182.726 142.154 181.802C142.728 180.878 143.442 180.157 144.295 179.639C145.163 179.121 146.164 178.862 147.298 178.862C147.606 178.862 147.935 178.89 148.285 178.946C148.649 179.002 148.921 179.065 149.103 179.135ZM164.383 179.282V182.978H151.575V179.282H164.383ZM155.27 173.718H160.33V195.722C160.33 196.422 160.428 196.961 160.624 197.339C160.834 197.703 161.121 197.948 161.485 198.074C161.849 198.2 162.276 198.263 162.766 198.263C163.116 198.263 163.452 198.242 163.774 198.2C164.096 198.158 164.355 198.116 164.551 198.074L164.572 201.937C164.152 202.063 163.662 202.175 163.102 202.273C162.556 202.371 161.926 202.42 161.212 202.42C160.051 202.42 159.022 202.217 158.126 201.811C157.23 201.391 156.53 200.712 156.026 199.774C155.522 198.837 155.27 197.591 155.27 196.037V173.718ZM189.671 202H183.141L183.183 197.822H189.671C191.561 197.822 193.143 197.409 194.416 196.583C195.704 195.757 196.67 194.574 197.314 193.035C197.972 191.495 198.301 189.661 198.301 187.534V185.875C198.301 184.223 198.112 182.761 197.734 181.487C197.37 180.213 196.824 179.142 196.096 178.274C195.382 177.407 194.5 176.749 193.451 176.301C192.415 175.853 191.218 175.629 189.86 175.629H183.016V171.43H189.86C191.89 171.43 193.745 171.773 195.424 172.458C197.104 173.13 198.553 174.103 199.77 175.377C201.002 176.651 201.947 178.176 202.605 179.954C203.263 181.732 203.592 183.719 203.592 185.917V187.534C203.592 189.731 203.263 191.719 202.605 193.497C201.947 195.274 201.002 196.8 199.77 198.074C198.539 199.333 197.069 200.306 195.361 200.992C193.668 201.664 191.771 202 189.671 202ZM186.06 171.43V202H180.79V171.43H186.06ZM221.831 197.444V186.61C221.831 185.798 221.684 185.098 221.39 184.51C221.097 183.922 220.649 183.467 220.047 183.146C219.459 182.824 218.717 182.663 217.821 182.663C216.995 182.663 216.281 182.803 215.68 183.083C215.078 183.362 214.609 183.74 214.273 184.216C213.937 184.692 213.769 185.231 213.769 185.833H208.73C208.73 184.937 208.947 184.069 209.381 183.229C209.815 182.39 210.445 181.641 211.27 180.983C212.096 180.325 213.083 179.807 214.231 179.429C215.379 179.051 216.666 178.862 218.094 178.862C219.802 178.862 221.314 179.149 222.629 179.723C223.959 180.297 225.002 181.165 225.758 182.327C226.528 183.474 226.912 184.916 226.912 186.652V196.751C226.912 197.787 226.982 198.718 227.122 199.543C227.276 200.355 227.493 201.062 227.773 201.664V202H222.587C222.349 201.454 222.16 200.761 222.02 199.921C221.894 199.068 221.831 198.242 221.831 197.444ZM222.566 188.185L222.608 191.313H218.976C218.038 191.313 217.212 191.404 216.498 191.586C215.785 191.754 215.19 192.006 214.714 192.342C214.238 192.678 213.881 193.084 213.643 193.56C213.405 194.035 213.286 194.574 213.286 195.176C213.286 195.778 213.426 196.331 213.706 196.835C213.986 197.325 214.392 197.71 214.924 197.99C215.47 198.27 216.127 198.41 216.897 198.41C217.933 198.41 218.836 198.2 219.606 197.78C220.39 197.346 221.006 196.821 221.453 196.205C221.901 195.575 222.139 194.98 222.167 194.42L223.805 196.667C223.637 197.241 223.35 197.857 222.944 198.515C222.538 199.173 222.006 199.802 221.348 200.404C220.705 200.992 219.928 201.475 219.018 201.853C218.122 202.231 217.086 202.42 215.911 202.42C214.427 202.42 213.104 202.126 211.942 201.538C210.78 200.936 209.871 200.131 209.213 199.124C208.555 198.102 208.226 196.947 208.226 195.659C208.226 194.455 208.45 193.392 208.898 192.468C209.36 191.53 210.032 190.746 210.913 190.116C211.809 189.486 212.901 189.01 214.189 188.688C215.477 188.353 216.946 188.185 218.598 188.185H222.566ZM243.263 179.282V182.978H230.455V179.282H243.263ZM234.15 173.718H239.21V195.722C239.21 196.422 239.308 196.961 239.504 197.339C239.714 197.703 240.001 197.948 240.365 198.074C240.729 198.2 241.156 198.263 241.646 198.263C241.996 198.263 242.332 198.242 242.654 198.2C242.976 198.158 243.235 198.116 243.431 198.074L243.452 201.937C243.032 202.063 242.542 202.175 241.982 202.273C241.436 202.371 240.806 202.42 240.092 202.42C238.93 202.42 237.902 202.217 237.006 201.811C236.11 201.391 235.41 200.712 234.906 199.774C234.402 198.837 234.15 197.591 234.15 196.037V173.718ZM257.828 202.42C256.148 202.42 254.63 202.147 253.272 201.601C251.928 201.041 250.78 200.264 249.828 199.271C248.891 198.277 248.17 197.108 247.666 195.764C247.162 194.42 246.91 192.972 246.91 191.418V190.578C246.91 188.8 247.169 187.191 247.687 185.749C248.205 184.307 248.926 183.076 249.849 182.054C250.773 181.018 251.865 180.227 253.125 179.681C254.385 179.135 255.749 178.862 257.219 178.862C258.843 178.862 260.263 179.135 261.481 179.681C262.699 180.227 263.707 180.997 264.505 181.991C265.317 182.971 265.918 184.139 266.31 185.497C266.716 186.855 266.919 188.353 266.919 189.99V192.153H249.367V188.521H261.922V188.122C261.894 187.212 261.712 186.358 261.376 185.56C261.054 184.762 260.557 184.118 259.886 183.628C259.214 183.139 258.318 182.894 257.198 182.894C256.358 182.894 255.609 183.076 254.951 183.439C254.308 183.789 253.769 184.3 253.335 184.972C252.901 185.644 252.565 186.456 252.327 187.408C252.103 188.346 251.991 189.402 251.991 190.578V191.418C251.991 192.412 252.124 193.336 252.39 194.189C252.67 195.029 253.076 195.764 253.608 196.394C254.14 197.024 254.784 197.521 255.539 197.885C256.295 198.235 257.156 198.41 258.122 198.41C259.34 198.41 260.424 198.165 261.376 197.675C262.328 197.185 263.154 196.492 263.854 195.596L266.52 198.179C266.03 198.893 265.394 199.578 264.61 200.236C263.826 200.88 262.867 201.405 261.733 201.811C260.613 202.217 259.312 202.42 257.828 202.42Z" fill="black"/>
<path d="M634.352 73.875V108H628.469V73.875H634.352ZM654.859 73.875L641.031 90.3047L633.156 98.6484L632.125 92.8125L637.75 85.875L647.688 73.875H654.859ZM648.531 108L637.305 91.8281L641.359 87.8203L655.516 108H648.531ZM672.941 101.133C672.941 100.57 672.8 100.062 672.519 99.6094C672.238 99.1406 671.699 98.7188 670.902 98.3438C670.121 97.9688 668.964 97.625 667.433 97.3125C666.089 97.0156 664.855 96.6641 663.73 96.2578C662.621 95.8359 661.667 95.3281 660.871 94.7344C660.074 94.1406 659.457 93.4375 659.019 92.625C658.582 91.8125 658.363 90.875 658.363 89.8125C658.363 88.7812 658.589 87.8047 659.042 86.8828C659.496 85.9609 660.144 85.1484 660.988 84.4453C661.832 83.7422 662.855 83.1875 664.058 82.7812C665.277 82.375 666.636 82.1719 668.136 82.1719C670.261 82.1719 672.082 82.5312 673.597 83.25C675.128 83.9531 676.3 84.9141 677.113 86.1328C677.925 87.3359 678.332 88.6953 678.332 90.2109H672.683C672.683 89.5391 672.511 88.9141 672.167 88.3359C671.839 87.7422 671.339 87.2656 670.667 86.9062C669.996 86.5312 669.152 86.3438 668.136 86.3438C667.167 86.3438 666.363 86.5 665.722 86.8125C665.097 87.1094 664.628 87.5 664.316 87.9844C664.019 88.4688 663.871 89 663.871 89.5781C663.871 90 663.949 90.3828 664.105 90.7266C664.277 91.0547 664.558 91.3594 664.949 91.6406C665.339 91.9062 665.871 92.1562 666.542 92.3906C667.23 92.625 668.089 92.8516 669.121 93.0703C671.058 93.4766 672.722 94 674.113 94.6406C675.519 95.2656 676.597 96.0781 677.347 97.0781C678.097 98.0625 678.472 99.3125 678.472 100.828C678.472 101.953 678.23 102.984 677.746 103.922C677.277 104.844 676.589 105.648 675.683 106.336C674.777 107.008 673.691 107.531 672.425 107.906C671.175 108.281 669.769 108.469 668.207 108.469C665.91 108.469 663.964 108.062 662.371 107.25C660.777 106.422 659.566 105.367 658.738 104.086C657.925 102.789 657.519 101.445 657.519 100.055H662.98C663.042 101.102 663.332 101.938 663.847 102.562C664.378 103.172 665.035 103.617 665.816 103.898C666.613 104.164 667.433 104.297 668.277 104.297C669.292 104.297 670.144 104.164 670.832 103.898C671.519 103.617 672.042 103.242 672.402 102.773C672.761 102.289 672.941 101.742 672.941 101.133ZM689.476 72V108H683.851V72H689.476ZM688.491 94.3828L686.663 94.3594C686.679 92.6094 686.921 90.9922 687.39 89.5078C687.874 88.0234 688.546 86.7344 689.405 85.6406C690.28 84.5312 691.327 83.6797 692.546 83.0859C693.765 82.4766 695.116 82.1719 696.601 82.1719C697.851 82.1719 698.976 82.3438 699.976 82.6875C700.991 83.0312 701.866 83.5859 702.601 84.3516C703.335 85.1016 703.89 86.0859 704.265 87.3047C704.655 88.5078 704.851 89.9766 704.851 91.7109V108H699.179V91.6641C699.179 90.4453 698.999 89.4766 698.64 88.7578C698.296 88.0391 697.788 87.5234 697.116 87.2109C696.444 86.8828 695.624 86.7188 694.655 86.7188C693.64 86.7188 692.741 86.9219 691.96 87.3281C691.194 87.7344 690.554 88.2891 690.038 88.9922C689.522 89.6953 689.132 90.5078 688.866 91.4297C688.616 92.3516 688.491 93.3359 688.491 94.3828ZM729.787 88.3828H733.162C734.475 88.3828 735.561 88.1562 736.42 87.7031C737.295 87.25 737.943 86.625 738.365 85.8281C738.787 85.0312 738.998 84.1172 738.998 83.0859C738.998 82.0078 738.803 81.0859 738.412 80.3203C738.037 79.5391 737.459 78.9375 736.678 78.5156C735.912 78.0938 734.936 77.8828 733.748 77.8828C732.748 77.8828 731.842 78.0859 731.029 78.4922C730.232 78.8828 729.6 79.4453 729.131 80.1797C728.662 80.8984 728.428 81.7578 728.428 82.7578H722.756C722.756 80.9453 723.232 79.3359 724.186 77.9297C725.139 76.5234 726.436 75.4219 728.076 74.625C729.732 73.8125 731.592 73.4062 733.654 73.4062C735.857 73.4062 737.779 73.7734 739.42 74.5078C741.076 75.2266 742.365 76.3047 743.287 77.7422C744.209 79.1797 744.67 80.9609 744.67 83.0859C744.67 84.0547 744.443 85.0391 743.99 86.0391C743.537 87.0391 742.865 87.9531 741.975 88.7812C741.084 89.5938 739.975 90.2578 738.647 90.7734C737.318 91.2734 735.779 91.5234 734.029 91.5234H729.787V88.3828ZM729.787 92.7891V89.6953H734.029C736.029 89.6953 737.732 89.9297 739.139 90.3984C740.561 90.8672 741.717 91.5156 742.607 92.3438C743.498 93.1562 744.147 94.0859 744.553 95.1328C744.975 96.1797 745.186 97.2891 745.186 98.4609C745.186 100.055 744.897 101.477 744.318 102.727C743.756 103.961 742.951 105.008 741.904 105.867C740.857 106.727 739.631 107.375 738.225 107.812C736.834 108.25 735.318 108.469 733.678 108.469C732.209 108.469 730.803 108.266 729.459 107.859C728.115 107.453 726.912 106.852 725.85 106.055C724.787 105.242 723.943 104.234 723.318 103.031C722.709 101.812 722.404 100.406 722.404 98.8125H728.053C728.053 99.8281 728.287 100.727 728.756 101.508C729.24 102.273 729.912 102.875 730.772 103.312C731.647 103.75 732.647 103.969 733.772 103.969C734.959 103.969 735.982 103.758 736.842 103.336C737.701 102.914 738.357 102.289 738.811 101.461C739.279 100.633 739.514 99.6328 739.514 98.4609C739.514 97.1328 739.256 96.0547 738.74 95.2266C738.225 94.3984 737.49 93.7891 736.537 93.3984C735.584 92.9922 734.459 92.7891 733.162 92.7891H729.787ZM773.158 88.0781V93.6562C773.158 96.3281 772.892 98.6094 772.361 100.5C771.845 102.375 771.095 103.898 770.111 105.07C769.127 106.242 767.947 107.102 766.572 107.648C765.213 108.195 763.689 108.469 762.002 108.469C760.658 108.469 759.408 108.297 758.252 107.953C757.111 107.609 756.08 107.07 755.158 106.336C754.236 105.602 753.447 104.656 752.791 103.5C752.15 102.328 751.65 100.93 751.291 99.3047C750.947 97.6797 750.775 95.7969 750.775 93.6562V88.0781C750.775 85.3906 751.041 83.125 751.572 81.2812C752.103 79.4219 752.861 77.9141 753.845 76.7578C754.83 75.5859 756.002 74.7344 757.361 74.2031C758.736 73.6719 760.267 73.4062 761.955 73.4062C763.314 73.4062 764.564 73.5781 765.705 73.9219C766.861 74.25 767.892 74.7734 768.798 75.4922C769.72 76.2109 770.502 77.1484 771.142 78.3047C771.798 79.4453 772.298 80.8281 772.642 82.4531C772.986 84.0625 773.158 85.9375 773.158 88.0781ZM767.509 94.4531V87.2344C767.509 85.875 767.431 84.6797 767.275 83.6484C767.119 82.6016 766.884 81.7188 766.572 81C766.275 80.2656 765.9 79.6719 765.447 79.2188C764.994 78.75 764.478 78.4141 763.9 78.2109C763.322 77.9922 762.673 77.8828 761.955 77.8828C761.08 77.8828 760.298 78.0547 759.611 78.3984C758.923 78.7266 758.345 79.2578 757.877 79.9922C757.408 80.7266 757.048 81.6953 756.798 82.8984C756.564 84.0859 756.447 85.5312 756.447 87.2344V94.4531C756.447 95.8281 756.525 97.0391 756.681 98.0859C756.838 99.1328 757.072 100.031 757.384 100.781C757.697 101.516 758.072 102.125 758.509 102.609C758.963 103.078 759.478 103.422 760.056 103.641C760.65 103.859 761.298 103.969 762.002 103.969C762.892 103.969 763.681 103.797 764.369 103.453C765.056 103.109 765.634 102.562 766.103 101.812C766.572 101.047 766.923 100.055 767.158 98.8359C767.392 97.6172 767.509 96.1562 767.509 94.4531ZM784.302 102.562L784.278 106.594C784.278 108.188 783.88 109.828 783.083 111.516C782.286 113.203 781.232 114.594 779.919 115.688L776.896 113.93C777.333 113.227 777.732 112.516 778.091 111.797C778.45 111.078 778.739 110.312 778.958 109.5C779.177 108.688 779.286 107.789 779.286 106.805V102.562H784.302ZM812.133 88.0781V93.6562C812.133 96.3281 811.868 98.6094 811.337 100.5C810.821 102.375 810.071 103.898 809.087 105.07C808.102 106.242 806.923 107.102 805.548 107.648C804.188 108.195 802.665 108.469 800.977 108.469C799.633 108.469 798.383 108.297 797.227 107.953C796.087 107.609 795.055 107.07 794.133 106.336C793.212 105.602 792.423 104.656 791.766 103.5C791.126 102.328 790.626 100.93 790.266 99.3047C789.923 97.6797 789.751 95.7969 789.751 93.6562V88.0781C789.751 85.3906 790.016 83.125 790.548 81.2812C791.079 79.4219 791.837 77.9141 792.821 76.7578C793.805 75.5859 794.977 74.7344 796.337 74.2031C797.712 73.6719 799.243 73.4062 800.93 73.4062C802.29 73.4062 803.54 73.5781 804.68 73.9219C805.837 74.25 806.868 74.7734 807.774 75.4922C808.696 76.2109 809.477 77.1484 810.118 78.3047C810.774 79.4453 811.274 80.8281 811.618 82.4531C811.962 84.0625 812.133 85.9375 812.133 88.0781ZM806.485 94.4531V87.2344C806.485 85.875 806.407 84.6797 806.251 83.6484C806.094 82.6016 805.86 81.7188 805.548 81C805.251 80.2656 804.876 79.6719 804.423 79.2188C803.969 78.75 803.454 78.4141 802.876 78.2109C802.298 77.9922 801.649 77.8828 800.93 77.8828C800.055 77.8828 799.274 78.0547 798.587 78.3984C797.899 78.7266 797.321 79.2578 796.852 79.9922C796.383 80.7266 796.024 81.6953 795.774 82.8984C795.54 84.0859 795.423 85.5312 795.423 87.2344V94.4531C795.423 95.8281 795.501 97.0391 795.657 98.0859C795.813 99.1328 796.048 100.031 796.36 100.781C796.673 101.516 797.048 102.125 797.485 102.609C797.938 103.078 798.454 103.422 799.032 103.641C799.626 103.859 800.274 103.969 800.977 103.969C801.868 103.969 802.657 103.797 803.344 103.453C804.032 103.109 804.61 102.562 805.079 101.812C805.548 101.047 805.899 100.055 806.133 98.8359C806.368 97.6172 806.485 96.1562 806.485 94.4531ZM839.895 88.0781V93.6562C839.895 96.3281 839.629 98.6094 839.098 100.5C838.582 102.375 837.832 103.898 836.848 105.07C835.863 106.242 834.684 107.102 833.309 107.648C831.949 108.195 830.426 108.469 828.738 108.469C827.395 108.469 826.145 108.297 824.988 107.953C823.848 107.609 822.817 107.07 821.895 106.336C820.973 105.602 820.184 104.656 819.527 103.5C818.887 102.328 818.387 100.93 818.027 99.3047C817.684 97.6797 817.512 95.7969 817.512 93.6562V88.0781C817.512 85.3906 817.777 83.125 818.309 81.2812C818.84 79.4219 819.598 77.9141 820.582 76.7578C821.567 75.5859 822.738 74.7344 824.098 74.2031C825.473 73.6719 827.004 73.4062 828.692 73.4062C830.051 73.4062 831.301 73.5781 832.442 73.9219C833.598 74.25 834.629 74.7734 835.535 75.4922C836.457 76.2109 837.238 77.1484 837.879 78.3047C838.535 79.4453 839.035 80.8281 839.379 82.4531C839.723 84.0625 839.895 85.9375 839.895 88.0781ZM834.246 94.4531V87.2344C834.246 85.875 834.168 84.6797 834.012 83.6484C833.856 82.6016 833.621 81.7188 833.309 81C833.012 80.2656 832.637 79.6719 832.184 79.2188C831.731 78.75 831.215 78.4141 830.637 78.2109C830.059 77.9922 829.41 77.8828 828.692 77.8828C827.817 77.8828 827.035 78.0547 826.348 78.3984C825.66 78.7266 825.082 79.2578 824.613 79.9922C824.145 80.7266 823.785 81.6953 823.535 82.8984C823.301 84.0859 823.184 85.5312 823.184 87.2344V94.4531C823.184 95.8281 823.262 97.0391 823.418 98.0859C823.574 99.1328 823.809 100.031 824.121 100.781C824.434 101.516 824.809 102.125 825.246 102.609C825.699 103.078 826.215 103.422 826.793 103.641C827.387 103.859 828.035 103.969 828.738 103.969C829.629 103.969 830.418 103.797 831.106 103.453C831.793 103.109 832.371 102.562 832.84 101.812C833.309 101.047 833.66 100.055 833.895 98.8359C834.129 97.6172 834.246 96.1562 834.246 94.4531ZM867.656 88.0781V93.6562C867.656 96.3281 867.39 98.6094 866.859 100.5C866.343 102.375 865.593 103.898 864.609 105.07C863.625 106.242 862.445 107.102 861.07 107.648C859.711 108.195 858.187 108.469 856.5 108.469C855.156 108.469 853.906 108.297 852.75 107.953C851.609 107.609 850.578 107.07 849.656 106.336C848.734 105.602 847.945 104.656 847.289 103.5C846.648 102.328 846.148 100.93 845.789 99.3047C845.445 97.6797 845.273 95.7969 845.273 93.6562V88.0781C845.273 85.3906 845.539 83.125 846.07 81.2812C846.601 79.4219 847.359 77.9141 848.343 76.7578C849.328 75.5859 850.5 74.7344 851.859 74.2031C853.234 73.6719 854.765 73.4062 856.453 73.4062C857.812 73.4062 859.062 73.5781 860.203 73.9219C861.359 74.25 862.39 74.7734 863.297 75.4922C864.218 76.2109 865 77.1484 865.64 78.3047C866.297 79.4453 866.797 80.8281 867.14 82.4531C867.484 84.0625 867.656 85.9375 867.656 88.0781ZM862.008 94.4531V87.2344C862.008 85.875 861.929 84.6797 861.773 83.6484C861.617 82.6016 861.383 81.7188 861.07 81C860.773 80.2656 860.398 79.6719 859.945 79.2188C859.492 78.75 858.976 78.4141 858.398 78.2109C857.82 77.9922 857.172 77.8828 856.453 77.8828C855.578 77.8828 854.797 78.0547 854.109 78.3984C853.422 78.7266 852.843 79.2578 852.375 79.9922C851.906 80.7266 851.547 81.6953 851.297 82.8984C851.062 84.0859 850.945 85.5312 850.945 87.2344V94.4531C850.945 95.8281 851.023 97.0391 851.179 98.0859C851.336 99.1328 851.57 100.031 851.883 100.781C852.195 101.516 852.57 102.125 853.008 102.609C853.461 103.078 853.976 103.422 854.554 103.641C855.148 103.859 855.797 103.969 856.5 103.969C857.39 103.969 858.179 103.797 858.867 103.453C859.554 103.109 860.133 102.562 860.601 101.812C861.07 101.047 861.422 100.055 861.656 98.8359C861.89 97.6172 862.008 96.1562 862.008 94.4531ZM873.738 105.188C873.738 104.312 874.034 103.578 874.628 102.984C875.222 102.375 876.027 102.07 877.042 102.07C878.073 102.07 878.878 102.375 879.456 102.984C880.05 103.578 880.347 104.312 880.347 105.188C880.347 106.062 880.05 106.797 879.456 107.391C878.878 107.984 878.073 108.281 877.042 108.281C876.027 108.281 875.222 107.984 874.628 107.391C874.034 106.797 873.738 106.062 873.738 105.188ZM909.257 88.0781V93.6562C909.257 96.3281 908.991 98.6094 908.46 100.5C907.944 102.375 907.194 103.898 906.21 105.07C905.225 106.242 904.046 107.102 902.671 107.648C901.311 108.195 899.788 108.469 898.1 108.469C896.757 108.469 895.507 108.297 894.35 107.953C893.21 107.609 892.178 107.07 891.257 106.336C890.335 105.602 889.546 104.656 888.889 103.5C888.249 102.328 887.749 100.93 887.389 99.3047C887.046 97.6797 886.874 95.7969 886.874 93.6562V88.0781C886.874 85.3906 887.139 83.125 887.671 81.2812C888.202 79.4219 888.96 77.9141 889.944 76.7578C890.928 75.5859 892.1 74.7344 893.46 74.2031C894.835 73.6719 896.366 73.4062 898.053 73.4062C899.413 73.4062 900.663 73.5781 901.803 73.9219C902.96 74.25 903.991 74.7734 904.897 75.4922C905.819 76.2109 906.6 77.1484 907.241 78.3047C907.897 79.4453 908.397 80.8281 908.741 82.4531C909.085 84.0625 909.257 85.9375 909.257 88.0781ZM903.608 94.4531V87.2344C903.608 85.875 903.53 84.6797 903.374 83.6484C903.217 82.6016 902.983 81.7188 902.671 81C902.374 80.2656 901.999 79.6719 901.546 79.2188C901.092 78.75 900.577 78.4141 899.999 78.2109C899.421 77.9922 898.772 77.8828 898.053 77.8828C897.178 77.8828 896.397 78.0547 895.71 78.3984C895.022 78.7266 894.444 79.2578 893.975 79.9922C893.507 80.7266 893.147 81.6953 892.897 82.8984C892.663 84.0859 892.546 85.5312 892.546 87.2344V94.4531C892.546 95.8281 892.624 97.0391 892.78 98.0859C892.936 99.1328 893.171 100.031 893.483 100.781C893.796 101.516 894.171 102.125 894.608 102.609C895.061 103.078 895.577 103.422 896.155 103.641C896.749 103.859 897.397 103.969 898.1 103.969C898.991 103.969 899.78 103.797 900.467 103.453C901.155 103.109 901.733 102.562 902.202 101.812C902.671 101.047 903.022 100.055 903.257 98.8359C903.491 97.6172 903.608 96.1562 903.608 94.4531ZM937.018 88.0781V93.6562C937.018 96.3281 936.752 98.6094 936.221 100.5C935.705 102.375 934.955 103.898 933.971 105.07C932.987 106.242 931.807 107.102 930.432 107.648C929.073 108.195 927.549 108.469 925.862 108.469C924.518 108.469 923.268 108.297 922.112 107.953C920.971 107.609 919.94 107.07 919.018 106.336C918.096 105.602 917.307 104.656 916.651 103.5C916.01 102.328 915.51 100.93 915.151 99.3047C914.807 97.6797 914.635 95.7969 914.635 93.6562V88.0781C914.635 85.3906 914.901 83.125 915.432 81.2812C915.963 79.4219 916.721 77.9141 917.705 76.7578C918.69 75.5859 919.862 74.7344 921.221 74.2031C922.596 73.6719 924.127 73.4062 925.815 73.4062C927.174 73.4062 928.424 73.5781 929.565 73.9219C930.721 74.25 931.752 74.7734 932.658 75.4922C933.58 76.2109 934.362 77.1484 935.002 78.3047C935.658 79.4453 936.158 80.8281 936.502 82.4531C936.846 84.0625 937.018 85.9375 937.018 88.0781ZM931.369 94.4531V87.2344C931.369 85.875 931.291 84.6797 931.135 83.6484C930.979 82.6016 930.744 81.7188 930.432 81C930.135 80.2656 929.76 79.6719 929.307 79.2188C928.854 78.75 928.338 78.4141 927.76 78.2109C927.182 77.9922 926.533 77.8828 925.815 77.8828C924.94 77.8828 924.158 78.0547 923.471 78.3984C922.783 78.7266 922.205 79.2578 921.737 79.9922C921.268 80.7266 920.908 81.6953 920.658 82.8984C920.424 84.0859 920.307 85.5312 920.307 87.2344V94.4531C920.307 95.8281 920.385 97.0391 920.541 98.0859C920.698 99.1328 920.932 100.031 921.244 100.781C921.557 101.516 921.932 102.125 922.369 102.609C922.823 103.078 923.338 103.422 923.916 103.641C924.51 103.859 925.158 103.969 925.862 103.969C926.752 103.969 927.541 103.797 928.229 103.453C928.916 103.109 929.494 102.562 929.963 101.812C930.432 101.047 930.783 100.055 931.018 98.8359C931.252 97.6172 931.369 96.1562 931.369 94.4531Z" fill="black"/>
<path d="M85.7578 78.4219L75.5625 108H69.3984L82.2422 73.875H86.1797L85.7578 78.4219ZM94.2891 108L84.0703 78.4219L83.625 73.875H87.5859L100.477 108H94.2891ZM93.7969 95.3438V100.008H75.2344V95.3438H93.7969ZM109.464 87.5156V117.75H103.816V82.6406H109.019L109.464 87.5156ZM125.988 95.0859V95.5781C125.988 97.4219 125.769 99.1328 125.332 100.711C124.91 102.273 124.277 103.641 123.433 104.812C122.605 105.969 121.582 106.867 120.363 107.508C119.144 108.148 117.738 108.469 116.144 108.469C114.566 108.469 113.183 108.18 111.996 107.602C110.824 107.008 109.832 106.172 109.019 105.094C108.207 104.016 107.55 102.75 107.05 101.297C106.566 99.8281 106.222 98.2188 106.019 96.4688V94.5703C106.222 92.7109 106.566 91.0234 107.05 89.5078C107.55 87.9922 108.207 86.6875 109.019 85.5938C109.832 84.5 110.824 83.6562 111.996 83.0625C113.167 82.4688 114.535 82.1719 116.097 82.1719C117.691 82.1719 119.105 82.4844 120.339 83.1094C121.574 83.7188 122.613 84.5938 123.457 85.7344C124.3 86.8594 124.933 88.2188 125.355 89.8125C125.777 91.3906 125.988 93.1484 125.988 95.0859ZM120.339 95.5781V95.0859C120.339 93.9141 120.23 92.8281 120.011 91.8281C119.792 90.8125 119.449 89.9219 118.98 89.1562C118.511 88.3906 117.91 87.7969 117.175 87.375C116.457 86.9375 115.589 86.7188 114.574 86.7188C113.574 86.7188 112.714 86.8906 111.996 87.2344C111.277 87.5625 110.675 88.0234 110.191 88.6172C109.707 89.2109 109.332 89.9062 109.066 90.7031C108.8 91.4844 108.613 92.3359 108.503 93.2578V97.8047C108.691 98.9297 109.011 99.9609 109.464 100.898C109.917 101.836 110.558 102.586 111.386 103.148C112.23 103.695 113.308 103.969 114.621 103.969C115.636 103.969 116.503 103.75 117.222 103.312C117.941 102.875 118.527 102.273 118.98 101.508C119.449 100.727 119.792 99.8281 120.011 98.8125C120.23 97.7969 120.339 96.7188 120.339 95.5781ZM136.944 87.4688V108H131.296V82.6406H136.687L136.944 87.4688ZM144.702 82.4766L144.655 87.7266C144.312 87.6641 143.937 87.6172 143.53 87.5859C143.14 87.5547 142.749 87.5391 142.358 87.5391C141.39 87.5391 140.538 87.6797 139.804 87.9609C139.069 88.2266 138.452 88.6172 137.952 89.1328C137.468 89.6328 137.093 90.2422 136.827 90.9609C136.562 91.6797 136.405 92.4844 136.358 93.375L135.069 93.4688C135.069 91.875 135.226 90.3984 135.538 89.0391C135.851 87.6797 136.319 86.4844 136.944 85.4531C137.585 84.4219 138.382 83.6172 139.335 83.0391C140.304 82.4609 141.421 82.1719 142.687 82.1719C143.03 82.1719 143.397 82.2031 143.788 82.2656C144.194 82.3281 144.499 82.3984 144.702 82.4766ZM154.768 82.6406V108H149.096V82.6406H154.768ZM148.721 75.9844C148.721 75.125 149.003 74.4141 149.565 73.8516C150.143 73.2734 150.94 72.9844 151.956 72.9844C152.956 72.9844 153.745 73.2734 154.323 73.8516C154.901 74.4141 155.19 75.125 155.19 75.9844C155.19 76.8281 154.901 77.5312 154.323 78.0938C153.745 78.6562 152.956 78.9375 151.956 78.9375C150.94 78.9375 150.143 78.6562 149.565 78.0938C149.003 77.5312 148.721 76.8281 148.721 75.9844ZM167.482 72V108H161.811V72H167.482ZM199.942 92.5781H191.247L191.2 88.2891H198.794C200.075 88.2891 201.161 88.1016 202.052 87.7266C202.958 87.3359 203.646 86.7812 204.114 86.0625C204.583 85.3281 204.817 84.4453 204.817 83.4141C204.817 82.2734 204.599 81.3438 204.161 80.625C203.724 79.9062 203.052 79.3828 202.146 79.0547C201.255 78.7266 200.114 78.5625 198.724 78.5625H193.028V108H187.146V73.875H198.724C200.599 73.875 202.271 74.0547 203.739 74.4141C205.224 74.7734 206.482 75.3359 207.513 76.1016C208.56 76.8516 209.349 77.8047 209.88 78.9609C210.427 80.1172 210.7 81.4922 210.7 83.0859C210.7 84.4922 210.364 85.7812 209.692 86.9531C209.021 88.1094 208.028 89.0547 206.716 89.7891C205.403 90.5234 203.771 90.9609 201.817 91.1016L199.942 92.5781ZM199.685 108H189.396L192.044 103.336H199.685C201.013 103.336 202.122 103.117 203.013 102.68C203.903 102.227 204.567 101.609 205.005 100.828C205.458 100.031 205.685 99.1016 205.685 98.0391C205.685 96.9297 205.489 95.9688 205.099 95.1562C204.708 94.3281 204.091 93.6953 203.247 93.2578C202.403 92.8047 201.302 92.5781 199.942 92.5781H193.333L193.38 88.2891H201.982L203.317 89.9062C205.192 89.9688 206.732 90.3828 207.935 91.1484C209.153 91.9141 210.06 92.9062 210.653 94.125C211.247 95.3438 211.544 96.6562 211.544 98.0625C211.544 100.234 211.067 102.055 210.114 103.523C209.177 104.992 207.825 106.109 206.06 106.875C204.294 107.625 202.169 108 199.685 108ZM232.649 102.023V82.6406H238.321V108H232.977L232.649 102.023ZM233.446 96.75L235.344 96.7031C235.344 98.4062 235.157 99.9766 234.782 101.414C234.407 102.836 233.829 104.078 233.048 105.141C232.266 106.188 231.266 107.008 230.048 107.602C228.829 108.18 227.368 108.469 225.665 108.469C224.43 108.469 223.298 108.289 222.266 107.93C221.235 107.57 220.344 107.016 219.594 106.266C218.86 105.516 218.29 104.539 217.883 103.336C217.477 102.133 217.274 100.695 217.274 99.0234V82.6406H222.923V99.0703C222.923 99.9922 223.032 100.766 223.251 101.391C223.469 102 223.766 102.492 224.141 102.867C224.516 103.242 224.954 103.508 225.454 103.664C225.954 103.82 226.485 103.898 227.048 103.898C228.657 103.898 229.923 103.586 230.844 102.961C231.782 102.32 232.446 101.461 232.837 100.383C233.243 99.3047 233.446 98.0938 233.446 96.75ZM260.059 102.75V72H265.731V108H260.598L260.059 102.75ZM243.559 95.6016V95.1094C243.559 93.1875 243.785 91.4375 244.238 89.8594C244.692 88.2656 245.348 86.8984 246.207 85.7578C247.067 84.6016 248.113 83.7188 249.348 83.1094C250.582 82.4844 251.973 82.1719 253.52 82.1719C255.051 82.1719 256.395 82.4688 257.551 83.0625C258.707 83.6562 259.692 84.5078 260.504 85.6172C261.317 86.7109 261.965 88.0234 262.449 89.5547C262.934 91.0703 263.277 92.7578 263.481 94.6172V96.1875C263.277 98 262.934 99.6562 262.449 101.156C261.965 102.656 261.317 103.953 260.504 105.047C259.692 106.141 258.699 106.984 257.527 107.578C256.371 108.172 255.02 108.469 253.473 108.469C251.942 108.469 250.559 108.148 249.324 107.508C248.106 106.867 247.067 105.969 246.207 104.812C245.348 103.656 244.692 102.297 244.238 100.734C243.785 99.1562 243.559 97.4453 243.559 95.6016ZM249.207 95.1094V95.6016C249.207 96.7578 249.309 97.8359 249.512 98.8359C249.731 99.8359 250.067 100.719 250.52 101.484C250.973 102.234 251.559 102.828 252.277 103.266C253.012 103.688 253.887 103.898 254.902 103.898C256.184 103.898 257.238 103.617 258.067 103.055C258.895 102.492 259.543 101.734 260.012 100.781C260.496 99.8125 260.824 98.7344 260.996 97.5469V93.3047C260.902 92.3828 260.707 91.5234 260.41 90.7266C260.129 89.9297 259.746 89.2344 259.262 88.6406C258.777 88.0312 258.176 87.5625 257.457 87.2344C256.754 86.8906 255.918 86.7188 254.949 86.7188C253.918 86.7188 253.043 86.9375 252.324 87.375C251.606 87.8125 251.012 88.4141 250.543 89.1797C250.09 89.9453 249.754 90.8359 249.535 91.8516C249.317 92.8672 249.207 93.9531 249.207 95.1094ZM288.359 82.6406H293.492V107.297C293.492 109.578 293.008 111.516 292.039 113.109C291.07 114.703 289.718 115.914 287.984 116.742C286.25 117.586 284.242 118.008 281.961 118.008C280.992 118.008 279.914 117.867 278.726 117.586C277.554 117.305 276.414 116.852 275.304 116.227C274.211 115.617 273.297 114.812 272.562 113.812L275.211 110.484C276.117 111.562 277.117 112.352 278.211 112.852C279.304 113.352 280.453 113.602 281.656 113.602C282.953 113.602 284.054 113.359 284.961 112.875C285.883 112.406 286.593 111.711 287.093 110.789C287.593 109.867 287.843 108.742 287.843 107.414V88.3828L288.359 82.6406ZM271.133 95.6016V95.1094C271.133 93.1875 271.367 91.4375 271.836 89.8594C272.304 88.2656 272.976 86.8984 273.851 85.7578C274.726 84.6016 275.789 83.7188 277.039 83.1094C278.289 82.4844 279.703 82.1719 281.281 82.1719C282.922 82.1719 284.32 82.4688 285.476 83.0625C286.648 83.6562 287.625 84.5078 288.406 85.6172C289.187 86.7109 289.797 88.0234 290.234 89.5547C290.687 91.0703 291.023 92.7578 291.242 94.6172V96.1875C291.039 98 290.695 99.6562 290.211 101.156C289.726 102.656 289.086 103.953 288.289 105.047C287.492 106.141 286.508 106.984 285.336 107.578C284.179 108.172 282.812 108.469 281.234 108.469C279.687 108.469 278.289 108.148 277.039 107.508C275.804 106.867 274.742 105.969 273.851 104.812C272.976 103.656 272.304 102.297 271.836 100.734C271.367 99.1562 271.133 97.4453 271.133 95.6016ZM276.781 95.1094V95.6016C276.781 96.7578 276.89 97.8359 277.109 98.8359C277.343 99.8359 277.695 100.719 278.164 101.484C278.648 102.234 279.258 102.828 279.992 103.266C280.742 103.688 281.625 103.898 282.64 103.898C283.968 103.898 285.054 103.617 285.898 103.055C286.758 102.492 287.414 101.734 287.867 100.781C288.336 99.8125 288.664 98.7344 288.851 97.5469V93.3047C288.758 92.3828 288.562 91.5234 288.265 90.7266C287.984 89.9297 287.601 89.2344 287.117 88.6406C286.633 88.0312 286.023 87.5625 285.289 87.2344C284.554 86.8906 283.687 86.7188 282.687 86.7188C281.672 86.7188 280.789 86.9375 280.039 87.375C279.289 87.8125 278.672 88.4141 278.187 89.1797C277.718 89.9453 277.367 90.8359 277.133 91.8516C276.898 92.8672 276.781 93.9531 276.781 95.1094ZM311.011 108.469C309.136 108.469 307.441 108.164 305.925 107.555C304.425 106.93 303.144 106.062 302.081 104.953C301.034 103.844 300.23 102.539 299.667 101.039C299.105 99.5391 298.823 97.9219 298.823 96.1875V95.25C298.823 93.2656 299.113 91.4688 299.691 89.8594C300.269 88.25 301.073 86.875 302.105 85.7344C303.136 84.5781 304.355 83.6953 305.761 83.0859C307.167 82.4766 308.691 82.1719 310.331 82.1719C312.144 82.1719 313.73 82.4766 315.089 83.0859C316.448 83.6953 317.573 84.5547 318.464 85.6641C319.37 86.7578 320.042 88.0625 320.48 89.5781C320.933 91.0938 321.159 92.7656 321.159 94.5938V97.0078H301.566V92.9531H315.581V92.5078C315.55 91.4922 315.347 90.5391 314.972 89.6484C314.613 88.7578 314.058 88.0391 313.308 87.4922C312.558 86.9453 311.558 86.6719 310.308 86.6719C309.37 86.6719 308.534 86.875 307.8 87.2812C307.081 87.6719 306.48 88.2422 305.995 88.9922C305.511 89.7422 305.136 90.6484 304.87 91.7109C304.62 92.7578 304.495 93.9375 304.495 95.25V96.1875C304.495 97.2969 304.644 98.3281 304.941 99.2812C305.253 100.219 305.706 101.039 306.3 101.742C306.894 102.445 307.613 103 308.456 103.406C309.3 103.797 310.261 103.992 311.339 103.992C312.698 103.992 313.909 103.719 314.972 103.172C316.034 102.625 316.956 101.852 317.738 100.852L320.714 103.734C320.167 104.531 319.456 105.297 318.581 106.031C317.706 106.75 316.636 107.336 315.37 107.789C314.12 108.242 312.667 108.469 311.011 108.469ZM337.671 82.6406V86.7656H323.374V82.6406H337.671ZM327.499 76.4297H333.147V100.992C333.147 101.773 333.257 102.375 333.475 102.797C333.71 103.203 334.03 103.477 334.436 103.617C334.842 103.758 335.319 103.828 335.866 103.828C336.257 103.828 336.632 103.805 336.991 103.758C337.35 103.711 337.639 103.664 337.858 103.617L337.882 107.93C337.413 108.07 336.866 108.195 336.241 108.305C335.632 108.414 334.928 108.469 334.132 108.469C332.835 108.469 331.686 108.242 330.686 107.789C329.686 107.32 328.905 106.562 328.342 105.516C327.78 104.469 327.499 103.078 327.499 101.344V76.4297Z" fill="black"/>
<defs>
<filter id="filter0_d_256_850" x="0" y="0" width="1008" height="553" filterUnits="userSpaceOnUse" color-interpolation-filters="sRGB">
<feFlood flood-opacity="0" result="BackgroundImageFix"/>
<feColorMatrix in="SourceAlpha" type="matrix" values="0 0 0 0 0 0 0 0 0 0 0 0 0 0 0 0 0 0 127 0" result="hardAlpha"/>
<feMorphology radius="2" operator="dilate" in="SourceAlpha" result="effect1_dropShadow_256_850"/>
<feOffset dy="2"/>
<feGaussianBlur stdDeviation="2"/>
<feComposite in2="hardAlpha" operator="out"/>
<feColorMatrix type="matrix" values="0 0 0 0 0 0 0 0 0 0 0 0 0 0 0 0 0 0 0.25 0"/>
<feBlend mode="normal" in2="BackgroundImageFix" result="effect1_dropShadow_256_850"/>
<feBlend mode="normal" in="SourceGraphic" in2="effect1_dropShadow_256_850" result="shape"/>
</filter>
</defs>
</svg>
