<svg width="966" height="515" viewBox="0 0 966 515" fill="none" xmlns="http://www.w3.org/2000/svg">
<g filter="url(#filter0_d_256_837)">
<rect x="6" y="4" width="954" height="503" rx="33" fill="#F3F3FF"/>
</g>
<path d="M852.327 448.367L856.111 435.622H858.442L857.807 439.437L853.992 452H851.903L852.327 448.367ZM850.102 435.622L853.054 448.428L853.296 452H850.965L846.53 435.622H850.102ZM861.984 448.276L864.845 435.622H868.402L863.982 452H861.651L861.984 448.276ZM858.836 435.622L862.575 448.216L863.044 452H860.955L857.095 439.421L856.459 435.622H858.836ZM874.563 428.75V452H870.9V428.75H874.563ZM884.735 435.622L877.605 443.523L873.7 447.52L872.747 444.432L875.698 440.784L880.33 435.622H884.735ZM881.117 452L875.804 444.311L878.105 441.752L885.34 452H881.117ZM902.021 444.144V447.05H886.127L886.006 444.855L895.512 429.961H898.434L895.27 435.38L889.806 444.144H902.021ZM899.266 429.961V452H895.618V429.961H899.266Z" fill="#8B7FBD"/>
<path d="M770.327 448.367L774.111 435.622H776.442L775.807 439.437L771.992 452H769.903L770.327 448.367ZM768.102 435.622L771.054 448.428L771.296 452H768.965L764.53 435.622H768.102ZM779.984 448.276L782.845 435.622H786.402L781.982 452H779.651L779.984 448.276ZM776.836 435.622L780.575 448.216L781.044 452H778.955L775.095 439.421L774.459 435.622H776.836ZM792.563 428.75V452H788.9V428.75H792.563ZM802.735 435.622L795.605 443.523L791.7 447.52L790.747 444.432L793.698 440.784L798.33 435.622H802.735ZM799.117 452L793.804 444.311L796.105 441.752L803.34 452H799.117ZM809.123 439.331H811.302C812.15 439.331 812.851 439.184 813.406 438.892C813.971 438.599 814.39 438.195 814.663 437.681C814.935 437.166 815.071 436.576 815.071 435.91C815.071 435.213 814.945 434.618 814.693 434.124C814.451 433.619 814.077 433.23 813.573 432.958C813.078 432.686 812.448 432.549 811.681 432.549C811.035 432.549 810.45 432.681 809.925 432.943C809.41 433.195 809.001 433.558 808.699 434.033C808.396 434.497 808.245 435.052 808.245 435.698H804.582C804.582 434.527 804.889 433.488 805.505 432.58C806.12 431.671 806.958 430.96 808.018 430.445C809.087 429.921 810.288 429.658 811.62 429.658C813.043 429.658 814.284 429.895 815.344 430.37C816.413 430.834 817.246 431.53 817.841 432.458C818.437 433.387 818.734 434.537 818.734 435.91C818.734 436.535 818.588 437.171 818.295 437.817C818.003 438.463 817.569 439.053 816.994 439.588C816.418 440.113 815.702 440.542 814.844 440.875C813.986 441.197 812.993 441.359 811.862 441.359H809.123V439.331ZM809.123 442.176V440.178H811.862C813.154 440.178 814.254 440.33 815.162 440.632C816.08 440.935 816.827 441.354 817.402 441.889C817.978 442.413 818.396 443.014 818.659 443.69C818.931 444.366 819.067 445.083 819.067 445.839C819.067 446.869 818.881 447.787 818.507 448.594C818.144 449.391 817.624 450.068 816.948 450.623C816.272 451.178 815.48 451.596 814.572 451.879C813.674 452.161 812.695 452.303 811.635 452.303C810.687 452.303 809.778 452.172 808.911 451.909C808.043 451.647 807.266 451.258 806.58 450.744C805.893 450.219 805.348 449.568 804.945 448.791C804.551 448.004 804.354 447.096 804.354 446.066H808.002C808.002 446.722 808.154 447.303 808.457 447.807C808.769 448.302 809.203 448.69 809.758 448.973C810.323 449.255 810.969 449.396 811.696 449.396C812.463 449.396 813.124 449.26 813.679 448.988C814.234 448.715 814.658 448.312 814.95 447.777C815.253 447.242 815.404 446.596 815.404 445.839C815.404 444.982 815.238 444.285 814.905 443.75C814.572 443.216 814.097 442.822 813.482 442.57C812.866 442.307 812.14 442.176 811.302 442.176H809.123Z" fill="#8B7FBD"/>
<path d="M461.327 448.367L465.111 435.622H467.442L466.807 439.437L462.992 452H460.903L461.327 448.367ZM459.102 435.622L462.054 448.428L462.296 452H459.965L455.53 435.622H459.102ZM470.984 448.276L473.845 435.622H477.402L472.982 452H470.651L470.984 448.276ZM467.836 435.622L471.575 448.216L472.044 452H469.955L466.095 439.421L465.459 435.622H467.836ZM483.563 428.75V452H479.9V428.75H483.563ZM493.735 435.622L486.605 443.523L482.7 447.52L481.747 444.432L484.698 440.784L489.33 435.622H493.735ZM490.117 452L484.804 444.311L487.105 441.752L494.34 452H490.117ZM510.612 449.094V452H495.839V449.502L503.014 441.677C503.801 440.789 504.421 440.022 504.875 439.376C505.33 438.73 505.647 438.15 505.829 437.635C506.021 437.111 506.117 436.601 506.117 436.106C506.117 435.41 505.986 434.8 505.723 434.275C505.471 433.74 505.097 433.321 504.603 433.019C504.109 432.706 503.508 432.549 502.802 432.549C501.984 432.549 501.298 432.726 500.743 433.079C500.188 433.432 499.769 433.922 499.487 434.547C499.204 435.163 499.063 435.869 499.063 436.667H495.415C495.415 435.385 495.708 434.214 496.293 433.155C496.878 432.085 497.726 431.237 498.836 430.612C499.946 429.976 501.283 429.658 502.847 429.658C504.32 429.658 505.572 429.905 506.601 430.4C507.63 430.894 508.412 431.596 508.947 432.504C509.492 433.412 509.765 434.487 509.765 435.728C509.765 436.414 509.654 437.095 509.432 437.771C509.21 438.448 508.892 439.124 508.478 439.8C508.074 440.466 507.595 441.137 507.04 441.813C506.485 442.479 505.875 443.155 505.208 443.841L500.44 449.094H510.612Z" fill="#8B7FBD"/>
<path d="M173.327 448.367L177.111 435.622H179.442L178.807 439.437L174.992 452H172.903L173.327 448.367ZM171.102 435.622L174.054 448.428L174.296 452H171.965L167.53 435.622H171.102ZM182.984 448.276L185.845 435.622H189.402L184.982 452H182.651L182.984 448.276ZM179.836 435.622L183.575 448.216L184.044 452H181.955L178.095 439.421L177.459 435.622H179.836ZM195.563 428.75V452H191.9V428.75H195.563ZM205.735 435.622L198.605 443.523L194.7 447.52L193.747 444.432L196.698 440.784L201.33 435.622H205.735ZM202.117 452L196.804 444.311L199.105 441.752L206.34 452H202.117ZM217.799 429.885V452H214.151V434.214L208.747 436.046V433.034L217.36 429.885H217.799Z" fill="#8B7FBD"/>
<path d="M63 389L106.999 343.5L151.5 392.5L194 390.5L239.5 379.5L284.5 387.5L328.5 331.5L372 369L416.5 297.5L461 387L505 237L549 326L593.5 343L637.5 209L682 379L726 336.5L770.5 186.5L814.5 382L859 355.5L903 397" stroke="#391D94" stroke-width="5"/>
<line x1="638" y1="160" x2="638" y2="405" stroke="#A99FD4" stroke-width="4" stroke-dasharray="12 12"/>
<line x1="328" y1="160" x2="328" y2="405" stroke="#A99FD4" stroke-width="4" stroke-dasharray="12 12"/>
<line x1="63" y1="160" x2="63" y2="405" stroke="#A99FD4" stroke-width="4" stroke-dasharray="12 12"/>
<path d="M433.967 64.0312V101H427.645V64.0312H433.967ZM445.57 64.0312V69.1094H416.143V64.0312H445.57ZM454.672 78.7578V101H448.553V73.5273H454.393L454.672 78.7578ZM463.077 73.3496L463.026 79.0371C462.653 78.9694 462.247 78.9186 461.807 78.8848C461.384 78.8509 460.961 78.834 460.538 78.834C459.488 78.834 458.566 78.9863 457.77 79.291C456.974 79.5788 456.306 80.002 455.764 80.5605C455.239 81.1022 454.833 81.7624 454.545 82.541C454.258 83.3197 454.088 84.1914 454.038 85.1562L452.641 85.2578C452.641 83.5312 452.81 81.9316 453.149 80.459C453.487 78.9863 453.995 77.6914 454.672 76.5742C455.366 75.457 456.23 74.5853 457.262 73.959C458.312 73.3327 459.522 73.0195 460.893 73.0195C461.265 73.0195 461.663 73.0534 462.086 73.1211C462.527 73.1888 462.857 73.265 463.077 73.3496ZM479.034 101.508C477.003 101.508 475.166 101.178 473.524 100.518C471.899 99.8405 470.511 98.901 469.36 97.6992C468.226 96.4974 467.354 95.084 466.745 93.459C466.136 91.834 465.831 90.082 465.831 88.2031V87.1875C465.831 85.0378 466.144 83.0911 466.77 81.3477C467.397 79.6042 468.269 78.1146 469.386 76.8789C470.503 75.6263 471.823 74.6699 473.347 74.0098C474.87 73.3496 476.52 73.0195 478.298 73.0195C480.261 73.0195 481.979 73.3496 483.452 74.0098C484.925 74.6699 486.144 75.6009 487.108 76.8027C488.09 77.9876 488.818 79.401 489.292 81.043C489.783 82.6849 490.028 84.4961 490.028 86.4766V89.0918H468.802V84.6992H483.985V84.2168C483.951 83.1165 483.731 82.084 483.325 81.1191C482.936 80.1543 482.335 79.3757 481.522 78.7832C480.71 78.1908 479.627 77.8945 478.272 77.8945C477.257 77.8945 476.351 78.1146 475.556 78.5547C474.777 78.9779 474.125 79.5957 473.601 80.4082C473.076 81.2207 472.67 82.2025 472.382 83.3535C472.111 84.4876 471.976 85.7656 471.976 87.1875V88.2031C471.976 89.4049 472.136 90.5221 472.458 91.5547C472.797 92.5703 473.287 93.459 473.931 94.2207C474.574 94.9824 475.353 95.5833 476.267 96.0234C477.181 96.4466 478.222 96.6582 479.39 96.6582C480.862 96.6582 482.174 96.362 483.325 95.7695C484.476 95.1771 485.475 94.3392 486.321 93.2559L489.546 96.3789C488.953 97.2422 488.183 98.0716 487.235 98.8672C486.287 99.6458 485.128 100.281 483.757 100.771C482.403 101.262 480.828 101.508 479.034 101.508ZM501.39 79.3926V101H495.271V73.5273H501.035L501.39 79.3926ZM500.298 86.248L498.318 86.2227C498.335 84.276 498.606 82.4902 499.13 80.8652C499.672 79.2402 500.417 77.8438 501.365 76.6758C502.33 75.5078 503.481 74.6107 504.818 73.9844C506.155 73.3411 507.645 73.0195 509.287 73.0195C510.607 73.0195 511.8 73.2057 512.867 73.5781C513.95 73.9336 514.872 74.5176 515.634 75.3301C516.413 76.1426 517.005 77.2005 517.412 78.5039C517.818 79.7904 518.021 81.373 518.021 83.252V101H511.876V83.2266C511.876 81.9062 511.682 80.8652 511.292 80.1035C510.92 79.3249 510.37 78.7747 509.642 78.4531C508.931 78.1146 508.042 77.9453 506.976 77.9453C505.927 77.9453 504.987 78.1654 504.158 78.6055C503.328 79.0456 502.626 79.6465 502.05 80.4082C501.492 81.1699 501.06 82.0501 500.755 83.0488C500.451 84.0475 500.298 85.1139 500.298 86.248ZM541.545 95.3125V62H547.689V101H542.129L541.545 95.3125ZM523.67 87.5684V87.0352C523.67 84.9531 523.915 83.0573 524.406 81.3477C524.897 79.6211 525.608 78.14 526.539 76.9043C527.47 75.6517 528.604 74.6953 529.941 74.0352C531.279 73.3581 532.785 73.0195 534.461 73.0195C536.12 73.0195 537.575 73.3411 538.828 73.9844C540.081 74.6276 541.147 75.5501 542.027 76.752C542.907 77.9368 543.61 79.3587 544.135 81.0176C544.659 82.6595 545.032 84.4876 545.252 86.502V88.2031C545.032 90.1667 544.659 91.9609 544.135 93.5859C543.61 95.2109 542.907 96.6159 542.027 97.8008C541.147 98.9857 540.072 99.8997 538.803 100.543C537.55 101.186 536.086 101.508 534.41 101.508C532.751 101.508 531.253 101.161 529.916 100.467C528.596 99.7728 527.47 98.7995 526.539 97.5469C525.608 96.2943 524.897 94.8216 524.406 93.1289C523.915 91.4193 523.67 89.5658 523.67 87.5684ZM529.789 87.0352V87.5684C529.789 88.821 529.899 89.9889 530.119 91.0723C530.356 92.1556 530.72 93.112 531.211 93.9414C531.702 94.7539 532.337 95.3971 533.115 95.8711C533.911 96.3281 534.859 96.5566 535.959 96.5566C537.347 96.5566 538.49 96.252 539.387 95.6426C540.284 95.0332 540.986 94.2122 541.494 93.1797C542.019 92.1302 542.374 90.9622 542.56 89.6758V85.0801C542.459 84.0814 542.247 83.1504 541.926 82.2871C541.621 81.4238 541.206 80.6706 540.682 80.0273C540.157 79.3672 539.505 78.8594 538.726 78.5039C537.965 78.1315 537.059 77.9453 536.01 77.9453C534.893 77.9453 533.945 78.1823 533.166 78.6562C532.387 79.1302 531.744 79.7819 531.236 80.6113C530.745 81.4408 530.381 82.4056 530.144 83.5059C529.907 84.6061 529.789 85.7826 529.789 87.0352Z" fill="black"/>
<defs>
<filter id="filter0_d_256_837" x="0" y="0" width="966" height="515" filterUnits="userSpaceOnUse" color-interpolation-filters="sRGB">
<feFlood flood-opacity="0" result="BackgroundImageFix"/>
<feColorMatrix in="SourceAlpha" type="matrix" values="0 0 0 0 0 0 0 0 0 0 0 0 0 0 0 0 0 0 127 0" result="hardAlpha"/>
<feMorphology radius="2" operator="dilate" in="SourceAlpha" result="effect1_dropShadow_256_837"/>
<feOffset dy="2"/>
<feGaussianBlur stdDeviation="2"/>
<feComposite in2="hardAlpha" operator="out"/>
<feColorMatrix type="matrix" values="0 0 0 0 0 0 0 0 0 0 0 0 0 0 0 0 0 0 0.25 0"/>
<feBlend mode="normal" in2="BackgroundImageFix" result="effect1_dropShadow_256_837"/>
<feBlend mode="normal" in="SourceGraphic" in2="effect1_dropShadow_256_837" result="shape"/>
</filter>
</defs>
</svg>
