<?xml version="1.0" encoding="UTF-8" standalone="no"?>
<!-- Created with Inkscape (http://www.inkscape.org/) -->

<svg
   width="75.93541mm"
   height="84.576019mm"
   viewBox="0 0 75.935412 84.576017"
   version="1.1"
   id="svg1"
   xml:space="preserve"
   xmlns="http://www.w3.org/2000/svg"
   xmlns:svg="http://www.w3.org/2000/svg"><defs
     id="defs1" /><g
     id="layer1"
     transform="translate(-81.62185,-79.792312)"><path
       style="fill:#ffffff"
       d="m 88.350031,164.03837 c -2.609175,-0.70351 -4.698272,-2.42511 -5.982234,-4.92988 L 81.62185,157.65328 V 122.06682 86.480356 l 0.77578,-1.532064 c 1.897101,-3.746525 6.169236,-5.815394 10.256443,-4.966893 1.187628,0.24655 7.440527,3.713352 31.341327,17.376596 20.88487,11.939145 30.19931,17.401615 30.99446,18.176735 0.62522,0.60947 1.45866,1.76297 1.85208,2.56334 0.62505,1.27157 0.71532,1.77239 0.71532,3.96875 0,2.19635 -0.0903,2.69717 -0.71532,3.96875 -0.39342,0.80036 -1.22686,1.9538 -1.85208,2.56319 -1.62835,1.58711 -60.317083,35.12475 -62.15636,35.5192 -1.663667,0.35679 -2.949684,0.33397 -4.483469,-0.0796 z m 15.210709,-23.71459 13.11743,-18.25555 -13.11832,-18.25696 C 93.662766,90.037368 90.310754,85.554314 89.908986,85.554314 c -0.738271,0 -1.999629,0.949634 -2.470296,1.859804 -0.590774,1.142431 -0.594077,68.156582 -0.0034,69.298792 0.485467,0.93879 1.675036,1.84695 2.433763,1.85803 0.460299,0.007 3.177626,-3.61471 13.691707,-18.24716 z m 10.05477,5.91149 c 6.2689,-3.57781 12.07658,-6.91244 12.90595,-7.41029 l 1.50794,-0.90518 -3.82594,-5.3468 c -2.10427,-2.94075 -3.93525,-5.34681 -4.06886,-5.34681 -0.1336,0 -2.29654,2.8575 -4.80652,6.35 -2.50999,3.4925 -6.69188,9.31194 -9.2931,12.93209 -2.60121,3.62014 -4.52428,6.50333 -4.27348,6.40709 0.2508,-0.0962 5.58511,-3.10228 11.85401,-6.6801 z m 27.76791,-15.86691 c 4.23895,-2.41483 8.15831,-4.68001 8.70969,-5.03374 2.53722,-1.62771 2.71738,-4.54052 0.38683,-6.25418 -0.4731,-0.34787 -4.5963,-2.75709 -9.16266,-5.35381 -7.94681,-4.51907 -8.31881,-4.69942 -8.68356,-4.20984 -2.87863,3.86383 -8.81083,12.31446 -8.81083,12.55135 0,0.17111 2.04695,3.1618 4.54879,6.64597 3.14404,4.37855 4.66548,6.29008 4.92668,6.18985 0.20784,-0.0798 3.84612,-2.12078 8.08506,-4.5356 z m -17.22107,-18.74825 3.87389,-5.41962 -2.17282,-1.27542 c -6.14616,-3.60771 -24.29066,-13.874816 -24.36217,-13.785392 -0.10644,0.13311 18.43242,25.900052 18.63464,25.900052 0.0839,0 1.89582,-2.43883 4.02646,-5.41962 z"
       id="path1" /></g></svg>
