<?xml version="1.0" encoding="UTF-8" standalone="no"?>
<!-- Created with Inkscape (http://www.inkscape.org/) -->

<svg
   width="108.73414mm"
   height="60.624001mm"
   viewBox="0 0 108.73414 60.623991"
   version="1.1"
   id="svg1"
   xml:space="preserve"
   xmlns="http://www.w3.org/2000/svg"
   xmlns:svg="http://www.w3.org/2000/svg"><defs
     id="defs1" /><g
     id="layer1"
     transform="translate(-40.560217,-48.308908)"><path
       style="fill:#f3f3ff"
       d="M 92.069049,108.37417 C 91.410819,108.03552 81.672391,98.512473 66.309457,83.184303 47.601309,64.518489 41.480007,58.257519 41.079843,57.379034 40.43449,55.962282 40.382746,53.631193 40.966746,52.283946 c 0.542479,-1.251463 1.870098,-2.564583 3.206848,-3.171826 1.397512,-0.634845 3.66449,-0.62894 5.032955,0.01311 0.724463,0.3399 8.068958,7.515813 23.28126,22.746873 l 22.222926,22.25033 22.623945,-22.590787 c 18.49825,-18.471136 22.81257,-22.650713 23.65827,-22.919399 1.36328,-0.433126 3.54865,-0.397659 4.67592,0.07589 1.02799,0.431841 2.48279,1.820899 3.05791,2.919719 0.58158,1.111144 0.74261,3.175241 0.35963,4.609788 -0.31681,1.186732 -1.85601,2.784212 -25.49984,26.465348 -18.1925,18.221198 -25.474044,25.348728 -26.2867,25.730728 -1.504659,0.70727 -3.813185,0.68982 -5.230821,-0.0395 z"
       id="path2" /></g></svg>
